<?xml version="1.0" encoding="utf-8"?>
<svg version="1.1" xmlns:xlink="http://www.w3.org/1999/xlink" width="1246px" height="1696px" xmlns="http://www.w3.org/2000/svg">
  <defs>
    <pattern id="BGPattern" patternUnits="userSpaceOnUse" alignment="0 0" imageRepeat="None" />
    <mask fill="white" id="Clip1">
      <path d="M 0 1695.9451363504027  L 0.8151055605131408 0.6583637951671005  L 48.98043413618625 307.89480153980514  L 612.1442759440991 185.3659841059308  L 100.85078798691815 324.3538964189823  L 878.9060957478459 401.1630058551419  L 1245.7035979779926 560.2675896871866  L 1160 646.2206407228881  L 1160 582.2130495260893  L 878.9060957478459 465.1705970519406  L 678.8347308950358 525.520611608923  L 197.1814451382694 796.1812829553908  L 100.85078798691815 1013.807093024511  L 786.2804638715432 1152.79500533756  L 1160.4880166518024 1110.7328739796617  L 786.2804638715432 1191.19956005564  L 197.1814451382694 1110.7328739796617  L 0 1695.9451363504027  Z " fill-rule="evenodd" />
    </mask>
  </defs>
  <g transform="matrix(1 0 0 1 0 -436 )">
    <path d="M 0 1695.9451363504027  L 0.8151055605131408 0.6583637951671005  L 48.98043413618625 307.89480153980514  L 612.1442759440991 185.3659841059308  L 100.85078798691815 324.3538964189823  L 878.9060957478459 401.1630058551419  L 1245.7035979779926 560.2675896871866  L 1160 646.2206407228881  L 1160 582.2130495260893  L 878.9060957478459 465.1705970519406  L 678.8347308950358 525.520611608923  L 197.1814451382694 796.1812829553908  L 100.85078798691815 1013.807093024511  L 786.2804638715432 1152.79500533756  L 1160.4880166518024 1110.7328739796617  L 786.2804638715432 1191.19956005564  L 197.1814451382694 1110.7328739796617  L 0 1695.9451363504027  Z " fill-rule="nonzero" fill="rgba(57, 70, 189, 1)" stroke="none" transform="matrix(1 0 0 1 0 436 )" class="fill" />
    <path d="M 0 1695.9451363504027  L 0.8151055605131408 0.6583637951671005  L 48.98043413618625 307.89480153980514  L 612.1442759440991 185.3659841059308  L 100.85078798691815 324.3538964189823  L 878.9060957478459 401.1630058551419  L 1245.7035979779926 560.2675896871866  L 1160 646.2206407228881  L 1160 582.2130495260893  L 878.9060957478459 465.1705970519406  L 678.8347308950358 525.520611608923  L 197.1814451382694 796.1812829553908  L 100.85078798691815 1013.807093024511  L 786.2804638715432 1152.79500533756  L 1160.4880166518024 1110.7328739796617  L 786.2804638715432 1191.19956005564  L 197.1814451382694 1110.7328739796617  L 0 1695.9451363504027  Z " stroke-width="2" stroke-dasharray="0" stroke="rgba(121, 121, 121, 1)" fill="none" transform="matrix(1 0 0 1 0 436 )" class="stroke" mask="url(#Clip1)" />
  </g>
</svg>