<?xml version="1.0" encoding="utf-8"?>
<svg version="1.1" xmlns:xlink="http://www.w3.org/1999/xlink" width="539px" height="1453px" xmlns="http://www.w3.org/2000/svg">
  <defs>
    <pattern id="BGPattern" patternUnits="userSpaceOnUse" alignment="0 0" imageRepeat="None" />
    <mask fill="white" id="Clip2">
      <path d="M 538.6014653491932 0.2208398471439952  L 283.1769846071083 0.2208398471439952  L 178.10875848625233 54  L 266.87329434697523 54  L 98.40182832560244 299.9320609692548  L 301.2921960072595 145.344167969427  L 348.3917456476407 299.9320609692548  L 0.5796867648038094 681.6695110300516  L 368.31847818780506 404.04227462219916  L 36.81010956510118 1451.454121069996  L 504.1825636889141 205.2864121938509  L 539 845.7219689074157  L 538.6014653491932 0.2208398471439952  Z " fill-rule="evenodd" />
    </mask>
  </defs>
  <g transform="matrix(1 0 0 1 -707 -452 )">
    <path d="M 538.6014653491932 0.2208398471439952  L 283.1769846071083 0.2208398471439952  L 178.10875848625233 54  L 266.87329434697523 54  L 98.40182832560244 299.9320609692548  L 301.2921960072595 145.344167969427  L 348.3917456476407 299.9320609692548  L 0.5796867648038094 681.6695110300516  L 368.31847818780506 404.04227462219916  L 36.81010956510118 1451.454121069996  L 504.1825636889141 205.2864121938509  L 539 845.7219689074157  L 538.6014653491932 0.2208398471439952  Z " fill-rule="nonzero" fill="rgba(252, 255, 12, 0.9921568627450981)" stroke="none" transform="matrix(1 0 0 1 707 452 )" class="fill" />
    <path d="M 538.6014653491932 0.2208398471439952  L 283.1769846071083 0.2208398471439952  L 178.10875848625233 54  L 266.87329434697523 54  L 98.40182832560244 299.9320609692548  L 301.2921960072595 145.344167969427  L 348.3917456476407 299.9320609692548  L 0.5796867648038094 681.6695110300516  L 368.31847818780506 404.04227462219916  L 36.81010956510118 1451.454121069996  L 504.1825636889141 205.2864121938509  L 539 845.7219689074157  L 538.6014653491932 0.2208398471439952  Z " stroke-width="2" stroke-dasharray="0" stroke="rgba(121, 121, 121, 1)" fill="none" transform="matrix(1 0 0 1 707 452 )" class="stroke" mask="url(#Clip2)" />
  </g>
</svg>