<?xml version="1.0" encoding="utf-8"?>
<svg version="1.1" xmlns:xlink="http://www.w3.org/1999/xlink" width="1212px" height="58px" xmlns="http://www.w3.org/2000/svg">
  <defs>
    <pattern id="BGPattern" patternUnits="userSpaceOnUse" alignment="0 0" imageRepeat="None" />
    <mask fill="white" id="Clip9">
      <path d="M 0.377584208754091 41.87459331558866  L 60.79105760963164 0.7033422064493545  L 1179.9506523608372 0  L 1211.6677258962966 19.573498964801747  L 1179.9506523608372 57.313812481515896  L 60.791057609631665 57.313812481515896  L 0.377584208754091 41.87459331558866  Z " fill-rule="evenodd" />
    </mask>
  </defs>
  <g transform="matrix(1 0 0 1 -20 -61 )">
    <path d="M 0.377584208754091 41.87459331558866  L 60.79105760963164 0.7033422064493545  L 1179.9506523608372 0  L 1211.6677258962966 19.573498964801747  L 1179.9506523608372 57.313812481515896  L 60.791057609631665 57.313812481515896  L 0.377584208754091 41.87459331558866  Z " fill-rule="nonzero" fill="rgba(255, 255, 255, 1)" stroke="none" transform="matrix(1 0 0 1 20 61 )" class="fill" />
    <path d="M 0.377584208754091 41.87459331558866  L 60.79105760963164 0.7033422064493545  L 1179.9506523608372 0  L 1211.6677258962966 19.573498964801747  L 1179.9506523608372 57.313812481515896  L 60.791057609631665 57.313812481515896  L 0.377584208754091 41.87459331558866  Z " stroke-width="2" stroke-dasharray="0" stroke="rgba(121, 121, 121, 1)" fill="none" transform="matrix(1 0 0 1 20 61 )" class="stroke" mask="url(#Clip9)" />
  </g>
</svg>