<?xml version="1.0" encoding="utf-8"?>
<svg version="1.1" xmlns:xlink="http://www.w3.org/1999/xlink" width="866px" height="94px" xmlns="http://www.w3.org/2000/svg">
  <defs>
    <pattern id="BGPattern" patternUnits="userSpaceOnUse" alignment="0 0" imageRepeat="None" />
    <mask fill="white" id="Clip10">
      <path d="M 0.141448527832862 56.7076923076923  L 163.92395443799566 0.29743589743402304  L 771.4081581775187 0.29743589743402304  L 865.2108661078861 56.7076923076923  L 711.850883301096 93.63076923076923  L 163.92395443799572 93.63076923076923  L 0.141448527832862 56.7076923076923  Z " fill-rule="evenodd" />
    </mask>
  </defs>
  <g transform="matrix(1 0 0 1 -186 -201 )">
    <path d="M 0.141448527832862 56.7076923076923  L 163.92395443799566 0.29743589743402304  L 771.4081581775187 0.29743589743402304  L 865.2108661078861 56.7076923076923  L 711.850883301096 93.63076923076923  L 163.92395443799572 93.63076923076923  L 0.141448527832862 56.7076923076923  Z " fill-rule="nonzero" fill="rgba(171, 255, 12, 1)" stroke="none" transform="matrix(1 0 0 1 186 201 )" class="fill" />
    <path d="M 0.141448527832862 56.7076923076923  L 163.92395443799566 0.29743589743402304  L 771.4081581775187 0.29743589743402304  L 865.2108661078861 56.7076923076923  L 711.850883301096 93.63076923076923  L 163.92395443799572 93.63076923076923  L 0.141448527832862 56.7076923076923  Z " stroke-width="20" stroke-dasharray="0" stroke="rgba(151, 0, 204, 1)" fill="none" transform="matrix(1 0 0 1 186 201 )" class="stroke" mask="url(#Clip10)" />
  </g>
</svg>