<?xml version="1.0" encoding="utf-8"?>
<svg version="1.1" xmlns:xlink="http://www.w3.org/1999/xlink" width="548px" height="316px" xmlns="http://www.w3.org/2000/svg">
  <defs>
    <pattern id="BGPattern" patternUnits="userSpaceOnUse" alignment="0 0" imageRepeat="None" />
    <mask fill="white" id="Clip3">
      <path d="M 27 118.96542105516149  L 27 56.65598999663489  L 68.16084418997178 81.90709151378616  L 97.37227987947776 18.662434473138656  L 98.42718446601943 81.90709151378616  L 152.4107800468698 36.89934112441554  L 184.87591624485103 81.90709151378616  L 241.08391920544443 18.510460251046027  L 305.29550273406846 0.4255278218617707  L 241.08391920544443 36.89934112441554  L 283.89164155785903 81.90709151378616  L 335 36.89934112441554  L 335 81.90709151378616  L 369.50708626269255 56.65598999663489  L 357.27630844771517 18.510460251046027  L 403.14172525387517 56.65598999663489  L 464.29561432875795 18.662434473138656  L 531.5648923111232 37  L 464.29561432875795 37  L 421.4878919763392 71.85341220603091  L 546.853364579846 92.55230125523012  L 500.987947773686 118.96542105516149  L 547.9999999999999 196.47227432308824  L 500.987947773686 164.55768768335366  L 464.29561432875795 246.62376761409962  L 385.71678698863167 301.89302530724837  L 421.4878919763392 220.78814985812676  L 403.14172525387517 196.47227432308824  L 335.8724472715099 220.78814985812676  L 283.89164155785903 196.47227432308824  L 335.8724472715099 315.0121675563878  L 241.08391920544443 208.63021209060753  L 198.2761968530298 258.7817053816189  L 152.4107800468698 196.47227432308824  L 131.00691887066037 246.62376761409962  L 152.4107800468698 292.2160342422918  L 98.42718446601943 246.62376761409962  L 97.37227987947776 188.88655246813957  L 52 220.78814985812676  L 52 273.97912759101484  L 27.04530744336293 220.78814985812676  L 34.055790667442544 164.55768768335366  L 1.0549045865416842 141.7615543692575  L 27 118.96542105516149  Z " fill-rule="evenodd" />
    </mask>
  </defs>
  <g transform="matrix(1 0 0 1 -65 -473 )">
    <path d="M 27 118.96542105516149  L 27 56.65598999663489  L 68.16084418997178 81.90709151378616  L 97.37227987947776 18.662434473138656  L 98.42718446601943 81.90709151378616  L 152.4107800468698 36.89934112441554  L 184.87591624485103 81.90709151378616  L 241.08391920544443 18.510460251046027  L 305.29550273406846 0.4255278218617707  L 241.08391920544443 36.89934112441554  L 283.89164155785903 81.90709151378616  L 335 36.89934112441554  L 335 81.90709151378616  L 369.50708626269255 56.65598999663489  L 357.27630844771517 18.510460251046027  L 403.14172525387517 56.65598999663489  L 464.29561432875795 18.662434473138656  L 531.5648923111232 37  L 464.29561432875795 37  L 421.4878919763392 71.85341220603091  L 546.853364579846 92.55230125523012  L 500.987947773686 118.96542105516149  L 547.9999999999999 196.47227432308824  L 500.987947773686 164.55768768335366  L 464.29561432875795 246.62376761409962  L 385.71678698863167 301.89302530724837  L 421.4878919763392 220.78814985812676  L 403.14172525387517 196.47227432308824  L 335.8724472715099 220.78814985812676  L 283.89164155785903 196.47227432308824  L 335.8724472715099 315.0121675563878  L 241.08391920544443 208.63021209060753  L 198.2761968530298 258.7817053816189  L 152.4107800468698 196.47227432308824  L 131.00691887066037 246.62376761409962  L 152.4107800468698 292.2160342422918  L 98.42718446601943 246.62376761409962  L 97.37227987947776 188.88655246813957  L 52 220.78814985812676  L 52 273.97912759101484  L 27.04530744336293 220.78814985812676  L 34.055790667442544 164.55768768335366  L 1.0549045865416842 141.7615543692575  L 27 118.96542105516149  Z " fill-rule="nonzero" fill="rgba(171, 255, 12, 1)" stroke="none" transform="matrix(1 0 0 1 65 473 )" class="fill" />
    <path d="M 27 118.96542105516149  L 27 56.65598999663489  L 68.16084418997178 81.90709151378616  L 97.37227987947776 18.662434473138656  L 98.42718446601943 81.90709151378616  L 152.4107800468698 36.89934112441554  L 184.87591624485103 81.90709151378616  L 241.08391920544443 18.510460251046027  L 305.29550273406846 0.4255278218617707  L 241.08391920544443 36.89934112441554  L 283.89164155785903 81.90709151378616  L 335 36.89934112441554  L 335 81.90709151378616  L 369.50708626269255 56.65598999663489  L 357.27630844771517 18.510460251046027  L 403.14172525387517 56.65598999663489  L 464.29561432875795 18.662434473138656  L 531.5648923111232 37  L 464.29561432875795 37  L 421.4878919763392 71.85341220603091  L 546.853364579846 92.55230125523012  L 500.987947773686 118.96542105516149  L 547.9999999999999 196.47227432308824  L 500.987947773686 164.55768768335366  L 464.29561432875795 246.62376761409962  L 385.71678698863167 301.89302530724837  L 421.4878919763392 220.78814985812676  L 403.14172525387517 196.47227432308824  L 335.8724472715099 220.78814985812676  L 283.89164155785903 196.47227432308824  L 335.8724472715099 315.0121675563878  L 241.08391920544443 208.63021209060753  L 198.2761968530298 258.7817053816189  L 152.4107800468698 196.47227432308824  L 131.00691887066037 246.62376761409962  L 152.4107800468698 292.2160342422918  L 98.42718446601943 246.62376761409962  L 97.37227987947776 188.88655246813957  L 52 220.78814985812676  L 52 273.97912759101484  L 27.04530744336293 220.78814985812676  L 34.055790667442544 164.55768768335366  L 1.0549045865416842 141.7615543692575  L 27 118.96542105516149  Z " stroke-width="16" stroke-dasharray="0" stroke="rgba(255, 12, 143, 1)" fill="none" transform="matrix(1 0 0 1 65 473 )" class="stroke" mask="url(#Clip3)" />
  </g>
</svg>