<?xml version="1.0" encoding="utf-8"?>
<svg version="1.1" xmlns:xlink="http://www.w3.org/1999/xlink" width="480px" height="651px" xmlns="http://www.w3.org/2000/svg">
  <defs>
    <pattern id="BGPattern" patternUnits="userSpaceOnUse" alignment="0 0" imageRepeat="None" />
    <mask fill="white" id="Clip11">
      <path d="M 40.17138434321102 144.81049412522228  L 0.3291316526595303 0.37141477547073076  L 78.28136517764844 71  L 232.45356037151706 71  L 429.9325519681557 70.52753903106478  L 405.6807459826067 169.571479156608  L 469.77480465870707 266.5520038628682  L 429.9325519681557 458.44963785610815  L 455.91662980981863 580.1911475937541  L 470 640.0301947529384  L 0.3291316526595303 621.459455979399  L 40.17138434321102 458.44963785610815  L 0 245.9178496700457  L 40.17138434321102 144.81049412522228  Z " fill-rule="evenodd" />
    </mask>
  </defs>
  <g transform="matrix(1 0 0 1 -707 -521 )">
    <path d="M 40.17138434321102 144.81049412522228  L 0.3291316526595303 0.37141477547073076  L 78.28136517764844 71  L 232.45356037151706 71  L 429.9325519681557 70.52753903106478  L 405.6807459826067 169.571479156608  L 469.77480465870707 266.5520038628682  L 429.9325519681557 458.44963785610815  L 455.91662980981863 580.1911475937541  L 470 640.0301947529384  L 0.3291316526595303 621.459455979399  L 40.17138434321102 458.44963785610815  L 0 245.9178496700457  L 40.17138434321102 144.81049412522228  Z " fill-rule="nonzero" fill="rgba(255, 255, 255, 1)" stroke="none" transform="matrix(1 0 0 1 707 521 )" class="fill" />
    <path d="M 40.17138434321102 144.81049412522228  L 0.3291316526595303 0.37141477547073076  L 78.28136517764844 71  L 232.45356037151706 71  L 429.9325519681557 70.52753903106478  L 405.6807459826067 169.571479156608  L 469.77480465870707 266.5520038628682  L 429.9325519681557 458.44963785610815  L 455.91662980981863 580.1911475937541  L 470 640.0301947529384  L 0.3291316526595303 621.459455979399  L 40.17138434321102 458.44963785610815  L 0 245.9178496700457  L 40.17138434321102 144.81049412522228  Z " stroke-width="34" stroke-dasharray="0" stroke="rgba(171, 255, 12, 1)" fill="none" transform="matrix(1 0 0 1 707 521 )" class="stroke" mask="url(#Clip11)" />
  </g>
  <style>svg { filter: drop-shadow(5px 5px 2.5px rgba(0, 0, 0, 0.34901960784313724)); }</style>
</svg>