<?xml version="1.0" encoding="utf-8"?>
<svg version="1.1" xmlns:xlink="http://www.w3.org/1999/xlink" width="589px" height="748px" xmlns="http://www.w3.org/2000/svg">
  <defs>
    <pattern id="BGPattern" patternUnits="userSpaceOnUse" alignment="0 0" imageRepeat="None" />
    <mask fill="white" id="Clip12">
      <path d="M 95 94.04797601199401  L 95 0  L 165.2511888111876 93.62241955945093  L 340.70573426573543 94.04797601199401  L 456.7756643356631 28.370430169527843  L 578.2441958041945 93.62241955945093  L 521.5588811188799 161.71145196632457  L 579 266.68204359358543  L 521 482.2973128820192  L 521 618.4753776957664  L 456.7756643356631 737.631184407795  L 230.03440559440438 737.631184407795  L 95 697.9125821704534  L 95 541.8752162380334  L 0 567.4086033906112  L 59.9784615384603 229.80048437319792  L 95 94.04797601199401  Z " fill-rule="evenodd" />
    </mask>
  </defs>
  <g transform="matrix(1 0 0 1 -105 -1795 )">
    <path d="M 95 94.04797601199401  L 95 0  L 165.2511888111876 93.62241955945093  L 340.70573426573543 94.04797601199401  L 456.7756643356631 28.370430169527843  L 578.2441958041945 93.62241955945093  L 521.5588811188799 161.71145196632457  L 579 266.68204359358543  L 521 482.2973128820192  L 521 618.4753776957664  L 456.7756643356631 737.631184407795  L 230.03440559440438 737.631184407795  L 95 697.9125821704534  L 95 541.8752162380334  L 0 567.4086033906112  L 59.9784615384603 229.80048437319792  L 95 94.04797601199401  Z " fill-rule="nonzero" fill="rgba(255, 255, 255, 1)" stroke="none" transform="matrix(1 0 0 1 105 1795 )" class="fill" />
    <path d="M 95 94.04797601199401  L 95 0  L 165.2511888111876 93.62241955945093  L 340.70573426573543 94.04797601199401  L 456.7756643356631 28.370430169527843  L 578.2441958041945 93.62241955945093  L 521.5588811188799 161.71145196632457  L 579 266.68204359358543  L 521 482.2973128820192  L 521 618.4753776957664  L 456.7756643356631 737.631184407795  L 230.03440559440438 737.631184407795  L 95 697.9125821704534  L 95 541.8752162380334  L 0 567.4086033906112  L 59.9784615384603 229.80048437319792  L 95 94.04797601199401  Z " stroke-width="38" stroke-dasharray="0" stroke="rgba(252, 255, 12, 1)" fill="none" transform="matrix(1 0 0 1 105 1795 )" class="stroke" mask="url(#Clip12)" />
  </g>
  <style>svg { filter: drop-shadow(5px 5px 2.5px rgba(0, 0, 0, 0.34901960784313724)); }</style>
</svg>