<?xml version="1.0" encoding="utf-8"?>
<svg version="1.1" xmlns:xlink="http://www.w3.org/1999/xlink" width="502px" height="453px" xmlns="http://www.w3.org/2000/svg">
  <defs>
    <pattern id="BGPattern" patternUnits="userSpaceOnUse" alignment="0 0" imageRepeat="None" />
    <mask fill="white" id="Clip13">
      <path d="M 62.213371131586236 35.70022624434255  L 75.25849279470714 0.3172268907574289  L 20 35.70022624434255  L 20 111.34663865546221  L 0.5455232695477028 300.46266968325887  L 19.520245688637967 411.49208144796364  L 0.5455232695477028 452.9755979314792  L 466.6121426883996 452.9755979314792  L 501.0038270729978 380.98949579832026  L 466.6121426883996 316.32401422107284  C 466.6121426883996 316.32401422107284  502 257.7590497737555  502 243.1178086619262  C 502 228.47656755009686  501.0038270729978 111.34663865546221  501.0038270729978 111.34663865546221  L 501.0038270729978 18.61877828054388  L 448.8233404205044 64.98270846800149  L 364.6230096858031 18.61877828054388  L 286.3522797070646 65  L 180.80538625088585 65  L 62.213371131586236 35.70022624434255  Z " fill-rule="evenodd" />
    </mask>
  </defs>
  <g transform="matrix(1 0 0 1 -105 -952 )">
    <path d="M 62.213371131586236 35.70022624434255  L 75.25849279470714 0.3172268907574289  L 20 35.70022624434255  L 20 111.34663865546221  L 0.5455232695477028 300.46266968325887  L 19.520245688637967 411.49208144796364  L 0.5455232695477028 452.9755979314792  L 466.6121426883996 452.9755979314792  L 501.0038270729978 380.98949579832026  L 466.6121426883996 316.32401422107284  C 466.6121426883996 316.32401422107284  502 257.7590497737555  502 243.1178086619262  C 502 228.47656755009686  501.0038270729978 111.34663865546221  501.0038270729978 111.34663865546221  L 501.0038270729978 18.61877828054388  L 448.8233404205044 64.98270846800149  L 364.6230096858031 18.61877828054388  L 286.3522797070646 65  L 180.80538625088585 65  L 62.213371131586236 35.70022624434255  Z " fill-rule="nonzero" fill="rgba(255, 255, 255, 1)" stroke="none" transform="matrix(1 0 0 1 105 952 )" class="fill" />
    <path d="M 62.213371131586236 35.70022624434255  L 75.25849279470714 0.3172268907574289  L 20 35.70022624434255  L 20 111.34663865546221  L 0.5455232695477028 300.46266968325887  L 19.520245688637967 411.49208144796364  L 0.5455232695477028 452.9755979314792  L 466.6121426883996 452.9755979314792  L 501.0038270729978 380.98949579832026  L 466.6121426883996 316.32401422107284  C 466.6121426883996 316.32401422107284  502 257.7590497737555  502 243.1178086619262  C 502 228.47656755009686  501.0038270729978 111.34663865546221  501.0038270729978 111.34663865546221  L 501.0038270729978 18.61877828054388  L 448.8233404205044 64.98270846800149  L 364.6230096858031 18.61877828054388  L 286.3522797070646 65  L 180.80538625088585 65  L 62.213371131586236 35.70022624434255  Z " stroke-width="32" stroke-dasharray="0" stroke="rgba(151, 0, 204, 1)" fill="none" transform="matrix(1 0 0 1 105 952 )" class="stroke" mask="url(#Clip13)" />
  </g>
</svg>