<?xml version="1.0" encoding="utf-8"?>
<svg version="1.1" xmlns:xlink="http://www.w3.org/1999/xlink" width="246px" height="182px" xmlns="http://www.w3.org/2000/svg">
  <defs>
    <pattern id="BGPattern" patternUnits="userSpaceOnUse" alignment="0 0" imageRepeat="None" />
    <mask fill="white" id="Clip4">
      <path d="M 246 0.3333333333321207  L 31.666666666664245 5  L 0.6944444444457076 43.83333333333334  L 74.33333333333212 16.33333333333212  L 31.666666666664245 74.33333333333212  L 86.80555555555429 134.33333333333212  L 63.66666666666424 67.4444444444419  L 142.36111111111245 33  L 162.33333333333212 91.66666666666424  L 86.80555555555429 181.33333333333337  L 162.33333333333212 119  L 187 91.66666666666424  L 193.75 43.83333333333334  L 235 134.33333333333212  L 246 0.3333333333321207  Z " fill-rule="evenodd" />
    </mask>
  </defs>
  <g transform="matrix(1 0 0 1 -1000 -127 )">
    <path d="M 246 0.3333333333321207  L 31.666666666664245 5  L 0.6944444444457076 43.83333333333334  L 74.33333333333212 16.33333333333212  L 31.666666666664245 74.33333333333212  L 86.80555555555429 134.33333333333212  L 63.66666666666424 67.4444444444419  L 142.36111111111245 33  L 162.33333333333212 91.66666666666424  L 86.80555555555429 181.33333333333337  L 162.33333333333212 119  L 187 91.66666666666424  L 193.75 43.83333333333334  L 235 134.33333333333212  L 246 0.3333333333321207  Z " fill-rule="nonzero" fill="rgba(0, 0, 255, 1)" stroke="none" transform="matrix(1 0 0 1 1000 127 )" class="fill" />
    <path d="M 246 0.3333333333321207  L 31.666666666664245 5  L 0.6944444444457076 43.83333333333334  L 74.33333333333212 16.33333333333212  L 31.666666666664245 74.33333333333212  L 86.80555555555429 134.33333333333212  L 63.66666666666424 67.4444444444419  L 142.36111111111245 33  L 162.33333333333212 91.66666666666424  L 86.80555555555429 181.33333333333337  L 162.33333333333212 119  L 187 91.66666666666424  L 193.75 43.83333333333334  L 235 134.33333333333212  L 246 0.3333333333321207  Z " stroke-width="2" stroke-dasharray="0" stroke="rgba(121, 121, 121, 1)" fill="none" transform="matrix(1 0 0 1 1000 127 )" class="stroke" mask="url(#Clip4)" />
  </g>
</svg>