<?xml version="1.0" encoding="utf-8"?>
<svg version="1.1" xmlns:xlink="http://www.w3.org/1999/xlink" width="72px" height="62px" xmlns="http://www.w3.org/2000/svg">
  <defs>
    <pattern id="BGPattern" patternUnits="userSpaceOnUse" alignment="0 0" imageRepeat="None" />
    <mask fill="white" id="Clip14">
      <path d="M 11.383057090236719 11.097605893184664  L 3.4640883977900216 5.756906077348049  L 44.34806629834253 0.6003683241238775  L 38.63904235727307 5.756906077348049  L 27.589318600366994 44.61510128913176  L 50.42541436464086 11.097605893184664  L 44.34806629834253 8.33517495395813  L 71.23572744014598 5.756906077348049  L 64.05340699815702 11.097605893184664  L 35.692449355430085 56.953959484344864  L 41.76979742172841 61.74217311233616  L 0.14917127071822733 59.34806629834253  L 9.357274401471955 53.45488029465662  L 11.383057090236719 11.097605893184664  Z " fill-rule="evenodd" />
    </mask>
  </defs>
  <g transform="matrix(1 0 0 1 -366 -217 )">
    <path d="M 11.383057090236719 11.097605893184664  L 3.4640883977900216 5.756906077348049  L 44.34806629834253 0.6003683241238775  L 38.63904235727307 5.756906077348049  L 27.589318600366994 44.61510128913176  L 50.42541436464086 11.097605893184664  L 44.34806629834253 8.33517495395813  L 71.23572744014598 5.756906077348049  L 64.05340699815702 11.097605893184664  L 35.692449355430085 56.953959484344864  L 41.76979742172841 61.74217311233616  L 0.14917127071822733 59.34806629834253  L 9.357274401471955 53.45488029465662  L 11.383057090236719 11.097605893184664  Z " fill-rule="nonzero" fill="rgba(151, 0, 204, 1)" stroke="none" transform="matrix(1 0 0 1 366 217 )" class="fill" />
    <path d="M 11.383057090236719 11.097605893184664  L 3.4640883977900216 5.756906077348049  L 44.34806629834253 0.6003683241238775  L 38.63904235727307 5.756906077348049  L 27.589318600366994 44.61510128913176  L 50.42541436464086 11.097605893184664  L 44.34806629834253 8.33517495395813  L 71.23572744014598 5.756906077348049  L 64.05340699815702 11.097605893184664  L 35.692449355430085 56.953959484344864  L 41.76979742172841 61.74217311233616  L 0.14917127071822733 59.34806629834253  L 9.357274401471955 53.45488029465662  L 11.383057090236719 11.097605893184664  Z " stroke-width="2" stroke-dasharray="0" stroke="rgba(121, 121, 121, 1)" fill="none" transform="matrix(1 0 0 1 366 217 )" class="stroke" mask="url(#Clip14)" />
  </g>
</svg>