<?xml version="1.0" encoding="utf-8"?>
<svg version="1.1" xmlns:xlink="http://www.w3.org/1999/xlink" width="57px" height="44px" xmlns="http://www.w3.org/2000/svg">
  <defs>
    <pattern id="BGPattern" patternUnits="userSpaceOnUse" alignment="0 0" imageRepeat="None" />
    <mask fill="white" id="Clip15">
      <path d="M 10.240454076364415 40.54179566563465  L 24.09706959707222 6.9413919413932765  L 14.84798534798665 3.186813186813169  L 56.33150183150315 0.07326007326139461  L 39.93956043956041 6.9413919413932765  L 32.53147574819104 38.68421052631578  L 41.613003095975216 43.431372549022626  L 0.7461300309597618 44  L 10.240454076364415 40.54179566563465  Z " fill-rule="evenodd" />
    </mask>
  </defs>
  <g transform="matrix(1 0 0 1 -420 -235 )">
    <path d="M 10.240454076364415 40.54179566563465  L 24.09706959707222 6.9413919413932765  L 14.84798534798665 3.186813186813169  L 56.33150183150315 0.07326007326139461  L 39.93956043956041 6.9413919413932765  L 32.53147574819104 38.68421052631578  L 41.613003095975216 43.431372549022626  L 0.7461300309597618 44  L 10.240454076364415 40.54179566563465  Z " fill-rule="nonzero" fill="rgba(151, 0, 204, 1)" stroke="none" transform="matrix(1 0 0 1 420 235 )" class="fill" />
    <path d="M 10.240454076364415 40.54179566563465  L 24.09706959707222 6.9413919413932765  L 14.84798534798665 3.186813186813169  L 56.33150183150315 0.07326007326139461  L 39.93956043956041 6.9413919413932765  L 32.53147574819104 38.68421052631578  L 41.613003095975216 43.431372549022626  L 0.7461300309597618 44  L 10.240454076364415 40.54179566563465  Z " stroke-width="2" stroke-dasharray="0" stroke="rgba(121, 121, 121, 1)" fill="none" transform="matrix(1 0 0 1 420 235 )" class="stroke" mask="url(#Clip15)" />
  </g>
</svg>