<?xml version="1.0" encoding="utf-8"?>
<svg version="1.1" xmlns:xlink="http://www.w3.org/1999/xlink" width="33px" height="13px" xmlns="http://www.w3.org/2000/svg">
  <defs>
    <pattern id="BGPattern" patternUnits="userSpaceOnUse" alignment="0 0" imageRepeat="None" />
    <mask fill="white" id="Clip16">
      <path d="M 0 6.5  C 0 2.8599999999999994  7.259999999999999 0  16.5 0  C 25.740000000000002 0  33 2.8599999999999994  33 6.5  C 33 10.14  25.740000000000002 13  16.5 13  C 7.259999999999999 13  0 10.14  0 6.5  Z " fill-rule="evenodd" />
    </mask>
  </defs>
  <g transform="matrix(1 0 0 1 -438 -221 )">
    <path d="M 0 6.5  C 0 2.8599999999999994  7.259999999999999 0  16.5 0  C 25.740000000000002 0  33 2.8599999999999994  33 6.5  C 33 10.14  25.740000000000002 13  16.5 13  C 7.259999999999999 13  0 10.14  0 6.5  Z " fill-rule="nonzero" fill="rgba(151, 0, 204, 1)" stroke="none" transform="matrix(1 0 0 1 438 221 )" class="fill" />
    <path d="M 0 6.5  C 0 2.8599999999999994  7.259999999999999 0  16.5 0  C 25.740000000000002 0  33 2.8599999999999994  33 6.5  C 33 10.14  25.740000000000002 13  16.5 13  C 7.259999999999999 13  0 10.14  0 6.5  Z " stroke-width="2" stroke-dasharray="0" stroke="rgba(121, 121, 121, 1)" fill="none" transform="matrix(1 0 0 1 438 221 )" class="stroke" mask="url(#Clip16)" />
  </g>
</svg>