<?xml version="1.0" encoding="utf-8"?>
<svg version="1.1" xmlns:xlink="http://www.w3.org/1999/xlink" width="64px" height="62px" xmlns="http://www.w3.org/2000/svg">
  <defs>
    <pattern id="BGPattern" patternUnits="userSpaceOnUse" alignment="0 0" imageRepeat="None" />
    <mask fill="white" id="Clip17">
      <path d="M 44.53480866758741 0.7602339181286482  L 56.465886939574034 8.654970760233937  L 61 0.7602339181286482  L 61 24.152046783625735  L 52.66471734893071 15.185185185188033  L 40.286549707602376 17.03703703703846  L 39.18672199170135 21.30935915168547  L 43.243891194100115 24.152046783625735  L 58.36606731212407 28.501613646844504  L 64 37.353619179348016  L 62.699861687413545 46.113416320885165  L 57.259566620561145 52.29137851544755  L 40 59.62213225371022  L 13.217273954115058 58.9473684210526  L 2.9608636977067135 51.25506072874492  L 0.16666666666856145 61.533333333334326  L 0.16666666666856145 36.9333333333343  L 11.633333333334349 47.266666666668584  L 25.299999999999955 44.13333333333429  L 29.873674504378528 42.9783310281249  L 32.086675887504384 39.658828953436114  L 32.086675887504384 36.9333333333343  L 15.633333333334349 30.80000000000001  L 6.821576763485496 24.152046783625735  L 5.622867680960326 16.145689257723774  L 12.446288612262379 6.740433379438855  L 29.873674504378528 0  L 44.53480866758741 0.7602339181286482  Z " fill-rule="evenodd" />
    </mask>
  </defs>
  <g transform="matrix(1 0 0 1 -613 -217 )">
    <path d="M 44.53480866758741 0.7602339181286482  L 56.465886939574034 8.654970760233937  L 61 0.7602339181286482  L 61 24.152046783625735  L 52.66471734893071 15.185185185188033  L 40.286549707602376 17.03703703703846  L 39.18672199170135 21.30935915168547  L 43.243891194100115 24.152046783625735  L 58.36606731212407 28.501613646844504  L 64 37.353619179348016  L 62.699861687413545 46.113416320885165  L 57.259566620561145 52.29137851544755  L 40 59.62213225371022  L 13.217273954115058 58.9473684210526  L 2.9608636977067135 51.25506072874492  L 0.16666666666856145 61.533333333334326  L 0.16666666666856145 36.9333333333343  L 11.633333333334349 47.266666666668584  L 25.299999999999955 44.13333333333429  L 29.873674504378528 42.9783310281249  L 32.086675887504384 39.658828953436114  L 32.086675887504384 36.9333333333343  L 15.633333333334349 30.80000000000001  L 6.821576763485496 24.152046783625735  L 5.622867680960326 16.145689257723774  L 12.446288612262379 6.740433379438855  L 29.873674504378528 0  L 44.53480866758741 0.7602339181286482  Z " fill-rule="nonzero" fill="rgba(151, 0, 204, 1)" stroke="none" transform="matrix(1 0 0 1 613 217 )" class="fill" />
    <path d="M 44.53480866758741 0.7602339181286482  L 56.465886939574034 8.654970760233937  L 61 0.7602339181286482  L 61 24.152046783625735  L 52.66471734893071 15.185185185188033  L 40.286549707602376 17.03703703703846  L 39.18672199170135 21.30935915168547  L 43.243891194100115 24.152046783625735  L 58.36606731212407 28.501613646844504  L 64 37.353619179348016  L 62.699861687413545 46.113416320885165  L 57.259566620561145 52.29137851544755  L 40 59.62213225371022  L 13.217273954115058 58.9473684210526  L 2.9608636977067135 51.25506072874492  L 0.16666666666856145 61.533333333334326  L 0.16666666666856145 36.9333333333343  L 11.633333333334349 47.266666666668584  L 25.299999999999955 44.13333333333429  L 29.873674504378528 42.9783310281249  L 32.086675887504384 39.658828953436114  L 32.086675887504384 36.9333333333343  L 15.633333333334349 30.80000000000001  L 6.821576763485496 24.152046783625735  L 5.622867680960326 16.145689257723774  L 12.446288612262379 6.740433379438855  L 29.873674504378528 0  L 44.53480866758741 0.7602339181286482  Z " stroke-width="2" stroke-dasharray="0" stroke="rgba(121, 121, 121, 1)" fill="none" transform="matrix(1 0 0 1 613 217 )" class="stroke" mask="url(#Clip17)" />
  </g>
</svg>