<?xml version="1.0" encoding="utf-8"?>
<svg version="1.1" xmlns:xlink="http://www.w3.org/1999/xlink" width="94px" height="64px" xmlns="http://www.w3.org/2000/svg">
  <defs>
    <pattern id="BGPattern" patternUnits="userSpaceOnUse" alignment="0 0" imageRepeat="None" />
    <mask fill="white" id="Clip18">
      <path d="M 7.628654970761317 57.39181286549814  L 28.24269005848066 9.730994152045753  L 19.90935672514729 7.538011695905396  L 53.09649122807024 0.6666666666666856  L 43.88596491228077 7.538011695905396  L 39.792397660817755 27.128654970761318  L 47.39473684210543 30.491228070175453  L 59.38304093567365 9.730994152045753  L 55.581871345028276 2.859649122807042  L 93.00877192982466 5.052631578947398  L 79.99707602339299 11.485380116958027  L 68.59356725146313 54.02923976608082  L 75.61111111111222 59.43859649122811  L 34.52923976608088 61.48538011695803  L 39.792397660817755 55.637426900585865  L 45.05555555555463 42  L 34.52923976608088 42  L 28.24269005848066 60  L 34.52923976608088 63.678362573098354  L 0.4649122807018102 61.48538011695803  L 7.628654970761317 57.39181286549814  Z " fill-rule="evenodd" />
    </mask>
  </defs>
  <g transform="matrix(1 0 0 1 -677 -215 )">
    <path d="M 7.628654970761317 57.39181286549814  L 28.24269005848066 9.730994152045753  L 19.90935672514729 7.538011695905396  L 53.09649122807024 0.6666666666666856  L 43.88596491228077 7.538011695905396  L 39.792397660817755 27.128654970761318  L 47.39473684210543 30.491228070175453  L 59.38304093567365 9.730994152045753  L 55.581871345028276 2.859649122807042  L 93.00877192982466 5.052631578947398  L 79.99707602339299 11.485380116958027  L 68.59356725146313 54.02923976608082  L 75.61111111111222 59.43859649122811  L 34.52923976608088 61.48538011695803  L 39.792397660817755 55.637426900585865  L 45.05555555555463 42  L 34.52923976608088 42  L 28.24269005848066 60  L 34.52923976608088 63.678362573098354  L 0.4649122807018102 61.48538011695803  L 7.628654970761317 57.39181286549814  Z " fill-rule="nonzero" fill="rgba(151, 0, 204, 1)" stroke="none" transform="matrix(1 0 0 1 677 215 )" class="fill" />
    <path d="M 7.628654970761317 57.39181286549814  L 28.24269005848066 9.730994152045753  L 19.90935672514729 7.538011695905396  L 53.09649122807024 0.6666666666666856  L 43.88596491228077 7.538011695905396  L 39.792397660817755 27.128654970761318  L 47.39473684210543 30.491228070175453  L 59.38304093567365 9.730994152045753  L 55.581871345028276 2.859649122807042  L 93.00877192982466 5.052631578947398  L 79.99707602339299 11.485380116958027  L 68.59356725146313 54.02923976608082  L 75.61111111111222 59.43859649122811  L 34.52923976608088 61.48538011695803  L 39.792397660817755 55.637426900585865  L 45.05555555555463 42  L 34.52923976608088 42  L 28.24269005848066 60  L 34.52923976608088 63.678362573098354  L 0.4649122807018102 61.48538011695803  L 7.628654970761317 57.39181286549814  Z " stroke-width="2" stroke-dasharray="0" stroke="rgba(121, 121, 121, 1)" fill="none" transform="matrix(1 0 0 1 677 215 )" class="stroke" mask="url(#Clip18)" />
  </g>
</svg>