<?xml version="1.0" encoding="utf-8"?>
<svg version="1.1" xmlns:xlink="http://www.w3.org/1999/xlink" width="78px" height="59px" xmlns="http://www.w3.org/2000/svg">
  <defs>
    <pattern id="BGPattern" patternUnits="userSpaceOnUse" alignment="0 0" imageRepeat="None" />
    <mask fill="white" id="Clip19">
      <path d="M 8.736779560308037 50.85541042050202  L 29.31274131274131 9.372133257379181  L 18.072930072928898 3.8949933540097517  L 58.053475935828835 0.28217566211862755  L 69.10516934046336 2.466019890319908  L 77.66131907308375 8.09803921568625  L 75.87878787878788 25.22397553159281  L 69.10516934046336 35.45356165317676  L 52.7058823529411 43.15448603683812  L 37.01960784313724 41.43039848825688  L 31.67201426024951 37.062710031851786  L 30.60249554367192 50.85541042050202  L 41.53535353535268 58.32645646435339  L 0.7748068924547624 55.33803804681334  L 8.736779560308037 50.85541042050202  Z " fill-rule="evenodd" />
    </mask>
  </defs>
  <g transform="matrix(1 0 0 1 -823 -220 )">
    <path d="M 8.736779560308037 50.85541042050202  L 29.31274131274131 9.372133257379181  L 18.072930072928898 3.8949933540097517  L 58.053475935828835 0.28217566211862755  L 69.10516934046336 2.466019890319908  L 77.66131907308375 8.09803921568625  L 75.87878787878788 25.22397553159281  L 69.10516934046336 35.45356165317676  L 52.7058823529411 43.15448603683812  L 37.01960784313724 41.43039848825688  L 31.67201426024951 37.062710031851786  L 30.60249554367192 50.85541042050202  L 41.53535353535268 58.32645646435339  L 0.7748068924547624 55.33803804681334  L 8.736779560308037 50.85541042050202  Z " fill-rule="nonzero" fill="rgba(151, 0, 204, 1)" stroke="none" transform="matrix(1 0 0 1 823 220 )" class="fill" />
    <path d="M 8.736779560308037 50.85541042050202  L 29.31274131274131 9.372133257379181  L 18.072930072928898 3.8949933540097517  L 58.053475935828835 0.28217566211862755  L 69.10516934046336 2.466019890319908  L 77.66131907308375 8.09803921568625  L 75.87878787878788 25.22397553159281  L 69.10516934046336 35.45356165317676  L 52.7058823529411 43.15448603683812  L 37.01960784313724 41.43039848825688  L 31.67201426024951 37.062710031851786  L 30.60249554367192 50.85541042050202  L 41.53535353535268 58.32645646435339  L 0.7748068924547624 55.33803804681334  L 8.736779560308037 50.85541042050202  Z " stroke-width="2" stroke-dasharray="0" stroke="rgba(121, 121, 121, 1)" fill="none" transform="matrix(1 0 0 1 823 220 )" class="stroke" mask="url(#Clip19)" />
  </g>
</svg>