<?xml version="1.0" encoding="utf-8"?>
<svg version="1.1" xmlns:xlink="http://www.w3.org/1999/xlink" width="1240px" height="1017px" xmlns="http://www.w3.org/2000/svg">
  <defs>
    <pattern id="BGPattern" patternUnits="userSpaceOnUse" alignment="0 0" imageRepeat="None" />
    <mask fill="white" id="Clip5">
      <path d="M 1021.125 322  L 956.5416666666686 144.08333333333144  L 883.625 321.1666666666656  L 831.5416666666686 229.5  L 831 322  L 798.2083333333343 127.41666666666559  L 769.0416666666686 296.1666666666656  L 644.0416666666686 256.58333333333144  L 739.875 360.75  L 385.7083333333343 639.9166666666656  L 769.0416666666686 533.6666666666656  L 0.29166666666856145 1017  L 698.2083333333344 639.9166666666656  L 669 742  L 669 904.5  L 831.5416666666686 806.5833333333314  L 883.625 719.0833333333314  L 1039.875 989.9166666666656  L 1040 756.5833333333314  L 1208.625 954.5  L 1239.875 719.0833333333314  L 1208.625 589.9166666666656  L 1239.875 483.6666666666656  L 1183.625 558.6666666666656  L 1164.875 400.33333333333144  L 1239.875 321.1666666666656  L 1133.625 144.08333333333144  L 1106 0.33333333333143855  L 1106 229.5  L 1021.125 322  Z " fill-rule="evenodd" />
    </mask>
  </defs>
  <g transform="matrix(1 0 0 1 24 -1081 )">
    <path d="M 1021.125 322  L 956.5416666666686 144.08333333333144  L 883.625 321.1666666666656  L 831.5416666666686 229.5  L 831 322  L 798.2083333333343 127.41666666666559  L 769.0416666666686 296.1666666666656  L 644.0416666666686 256.58333333333144  L 739.875 360.75  L 385.7083333333343 639.9166666666656  L 769.0416666666686 533.6666666666656  L 0.29166666666856145 1017  L 698.2083333333344 639.9166666666656  L 669 742  L 669 904.5  L 831.5416666666686 806.5833333333314  L 883.625 719.0833333333314  L 1039.875 989.9166666666656  L 1040 756.5833333333314  L 1208.625 954.5  L 1239.875 719.0833333333314  L 1208.625 589.9166666666656  L 1239.875 483.6666666666656  L 1183.625 558.6666666666656  L 1164.875 400.33333333333144  L 1239.875 321.1666666666656  L 1133.625 144.08333333333144  L 1106 0.33333333333143855  L 1106 229.5  L 1021.125 322  Z " fill-rule="nonzero" fill="rgba(151, 0, 204, 1)" stroke="none" transform="matrix(1 0 0 1 -24 1081 )" class="fill" />
    <path d="M 1021.125 322  L 956.5416666666686 144.08333333333144  L 883.625 321.1666666666656  L 831.5416666666686 229.5  L 831 322  L 798.2083333333343 127.41666666666559  L 769.0416666666686 296.1666666666656  L 644.0416666666686 256.58333333333144  L 739.875 360.75  L 385.7083333333343 639.9166666666656  L 769.0416666666686 533.6666666666656  L 0.29166666666856145 1017  L 698.2083333333344 639.9166666666656  L 669 742  L 669 904.5  L 831.5416666666686 806.5833333333314  L 883.625 719.0833333333314  L 1039.875 989.9166666666656  L 1040 756.5833333333314  L 1208.625 954.5  L 1239.875 719.0833333333314  L 1208.625 589.9166666666656  L 1239.875 483.6666666666656  L 1183.625 558.6666666666656  L 1164.875 400.33333333333144  L 1239.875 321.1666666666656  L 1133.625 144.08333333333144  L 1106 0.33333333333143855  L 1106 229.5  L 1021.125 322  Z " stroke-width="2" stroke-dasharray="0" stroke="rgba(121, 121, 121, 1)" fill="none" transform="matrix(1 0 0 1 -24 1081 )" class="stroke" mask="url(#Clip5)" />
  </g>
</svg>