<?xml version="1.0" encoding="utf-8"?>
<svg version="1.1" xmlns:xlink="http://www.w3.org/1999/xlink" width="22px" height="20px" xmlns="http://www.w3.org/2000/svg">
  <defs>
    <pattern id="BGPattern" patternUnits="userSpaceOnUse" alignment="0 0" imageRepeat="None" />
    <mask fill="white" id="Clip20">
      <path d="M 10.58058608058468 0.20512820512954022  L 3.346153846153811 2.036630036632687  L 0 16.963369963371264  L 11.862637362637429 19.161172161173454  L 21.752747252747213 13.849816849819518  L 20.195970695969322 14.673992673995343  L 21.752747252747213 3.959706959709621  L 10.58058608058468 0.20512820512954022  Z " fill-rule="evenodd" />
    </mask>
  </defs>
  <g transform="matrix(1 0 0 1 -863 -228 )">
    <path d="M 10.58058608058468 0.20512820512954022  L 3.346153846153811 2.036630036632687  L 0 16.963369963371264  L 11.862637362637429 19.161172161173454  L 21.752747252747213 13.849816849819518  L 20.195970695969322 14.673992673995343  L 21.752747252747213 3.959706959709621  L 10.58058608058468 0.20512820512954022  Z " fill-rule="nonzero" fill="rgba(171, 255, 12, 1)" stroke="none" transform="matrix(1 0 0 1 863 228 )" class="fill" />
    <path d="M 10.58058608058468 0.20512820512954022  L 3.346153846153811 2.036630036632687  L 0 16.963369963371264  L 11.862637362637429 19.161172161173454  L 21.752747252747213 13.849816849819518  L 20.195970695969322 14.673992673995343  L 21.752747252747213 3.959706959709621  L 10.58058608058468 0.20512820512954022  Z " stroke-width="2" stroke-dasharray="0" stroke="rgba(121, 121, 121, 1)" fill="none" transform="matrix(1 0 0 1 863 228 )" class="stroke" mask="url(#Clip20)" />
  </g>
</svg>