<?xml version="1.0" encoding="utf-8"?>
<svg version="1.1" xmlns:xlink="http://www.w3.org/1999/xlink" width="56px" height="59px" xmlns="http://www.w3.org/2000/svg">
  <defs>
    <pattern id="BGPattern" patternUnits="userSpaceOnUse" alignment="0 0" imageRepeat="None" />
    <mask fill="white" id="Clip21">
      <path d="M 36.042412193504674 0.8204108681255491  L 22.523525513584104 0.8204108681255491  L 11.787939032470831 6.121935056327715  L 0.9198144466514578 18.97813121272364  L 0 27.19549370443906  L 0 37.4009277667339  L 5.691186216035135 48.401590457256475  L 11.787939032470831 55.823724320741235  L 18.547382372431116 58.34194831013917  L 34.45195493704341 58.34194831013917  L 45.71769383697813 52.37773359840952  L 52.874751491053644 40.44930417495027  L 55.92312789927007 25.605036447977824  L 54.20013253810271 16.45990722332573  L 45.71769383697813 7.977468522201092  L 36.042412193504674 0.8204108681255491  Z " fill-rule="evenodd" />
    </mask>
  </defs>
  <g transform="matrix(1 0 0 1 -771 -220 )">
    <path d="M 36.042412193504674 0.8204108681255491  L 22.523525513584104 0.8204108681255491  L 11.787939032470831 6.121935056327715  L 0.9198144466514578 18.97813121272364  L 0 27.19549370443906  L 0 37.4009277667339  L 5.691186216035135 48.401590457256475  L 11.787939032470831 55.823724320741235  L 18.547382372431116 58.34194831013917  L 34.45195493704341 58.34194831013917  L 45.71769383697813 52.37773359840952  L 52.874751491053644 40.44930417495027  L 55.92312789927007 25.605036447977824  L 54.20013253810271 16.45990722332573  L 45.71769383697813 7.977468522201092  L 36.042412193504674 0.8204108681255491  Z " fill-rule="nonzero" fill="rgba(151, 0, 204, 1)" stroke="none" transform="matrix(1 0 0 1 771 220 )" class="fill" />
    <path d="M 36.042412193504674 0.8204108681255491  L 22.523525513584104 0.8204108681255491  L 11.787939032470831 6.121935056327715  L 0.9198144466514578 18.97813121272364  L 0 27.19549370443906  L 0 37.4009277667339  L 5.691186216035135 48.401590457256475  L 11.787939032470831 55.823724320741235  L 18.547382372431116 58.34194831013917  L 34.45195493704341 58.34194831013917  L 45.71769383697813 52.37773359840952  L 52.874751491053644 40.44930417495027  L 55.92312789927007 25.605036447977824  L 54.20013253810271 16.45990722332573  L 45.71769383697813 7.977468522201092  L 36.042412193504674 0.8204108681255491  Z " stroke-width="2" stroke-dasharray="0" stroke="rgba(121, 121, 121, 1)" fill="none" transform="matrix(1 0 0 1 771 220 )" class="stroke" mask="url(#Clip21)" />
  </g>
</svg>