<?xml version="1.0" encoding="utf-8"?>
<svg version="1.1" xmlns:xlink="http://www.w3.org/1999/xlink" width="18px" height="20px" xmlns="http://www.w3.org/2000/svg">
  <defs>
    <pattern id="BGPattern" patternUnits="userSpaceOnUse" alignment="0 0" imageRepeat="None" />
    <mask fill="white" id="Clip22">
      <path d="M 2.8369781312127316 2.572192513368975  L 0.5323826500278983 5.186571598334552  L 1 14.336898395721903  L 4.572786690432849 19.565656565655672  L 11.346405228757249 19.565656565655672  L 17.05050505050417 14.336898395721903  L 17.05050505050417 7.400265076208427  L 14.632869449965824 2.572192513368975  L 11.346405228757249 0.4331550802138793  L 6.711824123587917 0.4331550802138793  L 2.8369781312127316 2.572192513368975  Z " fill-rule="evenodd" />
    </mask>
  </defs>
  <g transform="matrix(1 0 0 1 -791 -237 )">
    <path d="M 2.8369781312127316 2.572192513368975  L 0.5323826500278983 5.186571598334552  L 1 14.336898395721903  L 4.572786690432849 19.565656565655672  L 11.346405228757249 19.565656565655672  L 17.05050505050417 14.336898395721903  L 17.05050505050417 7.400265076208427  L 14.632869449965824 2.572192513368975  L 11.346405228757249 0.4331550802138793  L 6.711824123587917 0.4331550802138793  L 2.8369781312127316 2.572192513368975  Z " fill-rule="nonzero" fill="rgba(171, 255, 12, 1)" stroke="none" transform="matrix(1 0 0 1 791 237 )" class="fill" />
    <path d="M 2.8369781312127316 2.572192513368975  L 0.5323826500278983 5.186571598334552  L 1 14.336898395721903  L 4.572786690432849 19.565656565655672  L 11.346405228757249 19.565656565655672  L 17.05050505050417 14.336898395721903  L 17.05050505050417 7.400265076208427  L 14.632869449965824 2.572192513368975  L 11.346405228757249 0.4331550802138793  L 6.711824123587917 0.4331550802138793  L 2.8369781312127316 2.572192513368975  Z " stroke-width="2" stroke-dasharray="0" stroke="rgba(121, 121, 121, 1)" fill="none" transform="matrix(1 0 0 1 791 237 )" class="stroke" mask="url(#Clip22)" />
  </g>
</svg>