<?xml version="1.0" encoding="utf-8"?>
<svg version="1.1" xmlns:xlink="http://www.w3.org/1999/xlink" width="62px" height="69px" xmlns="http://www.w3.org/2000/svg">
  <defs>
    <pattern id="BGPattern" patternUnits="userSpaceOnUse" alignment="0 0" imageRepeat="None" />
    <mask fill="white" id="Clip23">
      <path d="M 1.0723693732779667 2  L 13.187002460555439 2  L 34.86621315192886 0  L 20 7.658528740073277  L 20 23.93438193573281  L 39.56554967666176 26.209302325584925  L 43.34063995969043 6.368848025961814  L 39.56554967666176 0  L 58.571176618798475 0  L 54.66591080877082 7.658528740073277  L 53.233980011758696 63.51909273614817  L 60.78416057781039 68.5720930232573  L 37.61291677164789 68.5720930232573  L 42.353425090969466 63.51909273614817  L 39.56554967666176 39  L 20 39  L 20 63.51909273614817  L 26.02729486856376 67.3161068044823  L 4.027630805409535 68.5720930232573  L 11.057109263459441 62.057892132605666  L 10.055946029864218 7.658528740073277  L 1.0723693732779667 2  Z " fill-rule="evenodd" />
    </mask>
  </defs>
  <g transform="matrix(1 0 0 1 -148 -575 )">
    <path d="M 1.0723693732779667 2  L 13.187002460555439 2  L 34.86621315192886 0  L 20 7.658528740073277  L 20 23.93438193573281  L 39.56554967666176 26.209302325584925  L 43.34063995969043 6.368848025961814  L 39.56554967666176 0  L 58.571176618798475 0  L 54.66591080877082 7.658528740073277  L 53.233980011758696 63.51909273614817  L 60.78416057781039 68.5720930232573  L 37.61291677164789 68.5720930232573  L 42.353425090969466 63.51909273614817  L 39.56554967666176 39  L 20 39  L 20 63.51909273614817  L 26.02729486856376 67.3161068044823  L 4.027630805409535 68.5720930232573  L 11.057109263459441 62.057892132605666  L 10.055946029864218 7.658528740073277  L 1.0723693732779667 2  Z " fill-rule="nonzero" fill="rgba(255, 12, 143, 1)" stroke="none" transform="matrix(1 0 0 1 148 575 )" class="fill" />
    <path d="M 1.0723693732779667 2  L 13.187002460555439 2  L 34.86621315192886 0  L 20 7.658528740073277  L 20 23.93438193573281  L 39.56554967666176 26.209302325584925  L 43.34063995969043 6.368848025961814  L 39.56554967666176 0  L 58.571176618798475 0  L 54.66591080877082 7.658528740073277  L 53.233980011758696 63.51909273614817  L 60.78416057781039 68.5720930232573  L 37.61291677164789 68.5720930232573  L 42.353425090969466 63.51909273614817  L 39.56554967666176 39  L 20 39  L 20 63.51909273614817  L 26.02729486856376 67.3161068044823  L 4.027630805409535 68.5720930232573  L 11.057109263459441 62.057892132605666  L 10.055946029864218 7.658528740073277  L 1.0723693732779667 2  Z " stroke-width="2" stroke-dasharray="0" stroke="rgba(121, 121, 121, 1)" fill="none" transform="matrix(1 0 0 1 148 575 )" class="stroke" mask="url(#Clip23)" />
  </g>
</svg>