<?xml version="1.0" encoding="utf-8"?>
<svg version="1.1" xmlns:xlink="http://www.w3.org/1999/xlink" width="45px" height="70px" xmlns="http://www.w3.org/2000/svg">
  <defs>
    <pattern id="BGPattern" patternUnits="userSpaceOnUse" alignment="0 0" imageRepeat="None" />
    <mask fill="white" id="Clip24">
      <path d="M 36.3954189270634 5.709915611812846  L 19.517781796260607 1.7014767932459165  L 5.2019288728138235 9.929324894511694  L 0.37974683544302223 27.017932489448356  L 0 45.79430379746822  L 7.763713080166567 61.617088607594866  L 19.517781796260607 69.42299578058766  L 33.08016877636909 66.68037974683531  L 41.971066907775736 52.12341772151888  L 44.53285111512848 32.081223628688804  L 41.971066907775736 16.469409282698848  L 36.3954189270634 5.709915611812846  Z " fill-rule="evenodd" />
    </mask>
  </defs>
  <g transform="matrix(1 0 0 1 -210 -574 )">
    <path d="M 36.3954189270634 5.709915611812846  L 19.517781796260607 1.7014767932459165  L 5.2019288728138235 9.929324894511694  L 0.37974683544302223 27.017932489448356  L 0 45.79430379746822  L 7.763713080166567 61.617088607594866  L 19.517781796260607 69.42299578058766  L 33.08016877636909 66.68037974683531  L 41.971066907775736 52.12341772151888  L 44.53285111512848 32.081223628688804  L 41.971066907775736 16.469409282698848  L 36.3954189270634 5.709915611812846  Z " fill-rule="nonzero" fill="rgba(255, 12, 143, 1)" stroke="none" transform="matrix(1 0 0 1 210 574 )" class="fill" />
    <path d="M 36.3954189270634 5.709915611812846  L 19.517781796260607 1.7014767932459165  L 5.2019288728138235 9.929324894511694  L 0.37974683544302223 27.017932489448356  L 0 45.79430379746822  L 7.763713080166567 61.617088607594866  L 19.517781796260607 69.42299578058766  L 33.08016877636909 66.68037974683531  L 41.971066907775736 52.12341772151888  L 44.53285111512848 32.081223628688804  L 41.971066907775736 16.469409282698848  L 36.3954189270634 5.709915611812846  Z " stroke-width="2" stroke-dasharray="0" stroke="rgba(121, 121, 121, 1)" fill="none" transform="matrix(1 0 0 1 210 574 )" class="stroke" mask="url(#Clip24)" />
  </g>
</svg>