<?xml version="1.0" encoding="utf-8"?>
<svg version="1.1" xmlns:xlink="http://www.w3.org/1999/xlink" width="46px" height="69px" xmlns="http://www.w3.org/2000/svg">
  <defs>
    <pattern id="BGPattern" patternUnits="userSpaceOnUse" alignment="0 0" imageRepeat="None" />
    <mask fill="white" id="Clip25">
      <path d="M 18.461333333335265 0  L 2 0.9684210526333819  L 2 67.66842105263505  L 24.71733333333512 69  L 36.984000000000044 62.826315789473725  L 45.693333333335076 48.9052631578965  L 41.4 38.131578947368425  L 28.27466666667024 31.83684210526496  L 38.08799999999998 26.75263157894905  L 41.4 18.157894736842103  L 39.43733333333512 7.868421052633299  L 33.05866666667028 2.178947368421135  L 18.461333333335265 0  Z " fill-rule="evenodd" />
    </mask>
  </defs>
  <g transform="matrix(1 0 0 1 -264 -575 )">
    <path d="M 18.461333333335265 0  L 2 0.9684210526333819  L 2 67.66842105263505  L 24.71733333333512 69  L 36.984000000000044 62.826315789473725  L 45.693333333335076 48.9052631578965  L 41.4 38.131578947368425  L 28.27466666667024 31.83684210526496  L 38.08799999999998 26.75263157894905  L 41.4 18.157894736842103  L 39.43733333333512 7.868421052633299  L 33.05866666667028 2.178947368421135  L 18.461333333335265 0  Z " fill-rule="nonzero" fill="rgba(255, 12, 143, 1)" stroke="none" transform="matrix(1 0 0 1 264 575 )" class="fill" />
    <path d="M 18.461333333335265 0  L 2 0.9684210526333819  L 2 67.66842105263505  L 24.71733333333512 69  L 36.984000000000044 62.826315789473725  L 45.693333333335076 48.9052631578965  L 41.4 38.131578947368425  L 28.27466666667024 31.83684210526496  L 38.08799999999998 26.75263157894905  L 41.4 18.157894736842103  L 39.43733333333512 7.868421052633299  L 33.05866666667028 2.178947368421135  L 18.461333333335265 0  Z " stroke-width="2" stroke-dasharray="0" stroke="rgba(121, 121, 121, 1)" fill="none" transform="matrix(1 0 0 1 264 575 )" class="stroke" mask="url(#Clip25)" />
  </g>
</svg>