<?xml version="1.0" encoding="utf-8"?>
<svg version="1.1" xmlns:xlink="http://www.w3.org/1999/xlink" width="23px" height="23px" xmlns="http://www.w3.org/2000/svg">
  <defs>
    <pattern id="BGPattern" patternUnits="userSpaceOnUse" alignment="0 0" imageRepeat="None" />
    <mask fill="white" id="Clip26">
      <path d="M 0.7666666666683831 2.948717948716273  L 0 11.441025641023884  L 0 20.405128205129962  L 2.5358974358991526 23  L 12.5615384615385 21.466666666668466  L 21.64358974359148 16.866666666668422  L 21.64358974359148 6.48717948718284  L 11.3820512820531 0.8256410256444987  L 0.7666666666683831 2.948717948716273  Z " fill-rule="evenodd" />
    </mask>
  </defs>
  <g transform="matrix(1 0 0 1 -275 -583 )">
    <path d="M 0.7666666666683831 2.948717948716273  L 0 11.441025641023884  L 0 20.405128205129962  L 2.5358974358991526 23  L 12.5615384615385 21.466666666668466  L 21.64358974359148 16.866666666668422  L 21.64358974359148 6.48717948718284  L 11.3820512820531 0.8256410256444987  L 0.7666666666683831 2.948717948716273  Z " fill-rule="nonzero" fill="rgba(171, 255, 12, 1)" stroke="none" transform="matrix(1 0 0 1 275 583 )" class="fill" />
    <path d="M 0.7666666666683831 2.948717948716273  L 0 11.441025641023884  L 0 20.405128205129962  L 2.5358974358991526 23  L 12.5615384615385 21.466666666668466  L 21.64358974359148 16.866666666668422  L 21.64358974359148 6.48717948718284  L 11.3820512820531 0.8256410256444987  L 0.7666666666683831 2.948717948716273  Z " stroke-width="2" stroke-dasharray="0" stroke="rgba(121, 121, 121, 1)" fill="none" transform="matrix(1 0 0 1 275 583 )" class="stroke" mask="url(#Clip26)" />
  </g>
</svg>