<?xml version="1.0" encoding="utf-8"?>
<svg version="1.1" xmlns:xlink="http://www.w3.org/1999/xlink" width="23px" height="26px" xmlns="http://www.w3.org/2000/svg">
  <defs>
    <pattern id="BGPattern" patternUnits="userSpaceOnUse" alignment="0 0" imageRepeat="None" />
    <mask fill="white" id="Clip27">
      <path d="M 0.7666666666683831 3.3333333333314386  L 0 12.933333333331348  L 0 23.066666666668652  L 2.5358974358991526 26  L 12.5615384615385 24.266666666668698  L 21.64358974359148 19.066666666668652  L 21.64358974359148 7.333333333337123  L 11.3820512820531 0.9333333333372593  L 0.7666666666683831 3.3333333333314386  Z " fill-rule="evenodd" />
    </mask>
  </defs>
  <g transform="matrix(1 0 0 1 -275 -610 )">
    <path d="M 0.7666666666683831 3.3333333333314386  L 0 12.933333333331348  L 0 23.066666666668652  L 2.5358974358991526 26  L 12.5615384615385 24.266666666668698  L 21.64358974359148 19.066666666668652  L 21.64358974359148 7.333333333337123  L 11.3820512820531 0.9333333333372593  L 0.7666666666683831 3.3333333333314386  Z " fill-rule="nonzero" fill="rgba(171, 255, 12, 1)" stroke="none" transform="matrix(1 0 0 1 275 610 )" class="fill" />
    <path d="M 0.7666666666683831 3.3333333333314386  L 0 12.933333333331348  L 0 23.066666666668652  L 2.5358974358991526 26  L 12.5615384615385 24.266666666668698  L 21.64358974359148 19.066666666668652  L 21.64358974359148 7.333333333337123  L 11.3820512820531 0.9333333333372593  L 0.7666666666683831 3.3333333333314386  Z " stroke-width="2" stroke-dasharray="0" stroke="rgba(121, 121, 121, 1)" fill="none" transform="matrix(1 0 0 1 275 610 )" class="stroke" mask="url(#Clip27)" />
  </g>
</svg>