<?xml version="1.0" encoding="utf-8"?>
<svg version="1.1" xmlns:xlink="http://www.w3.org/1999/xlink" width="1248px" height="869px" xmlns="http://www.w3.org/2000/svg">
  <defs>
    <pattern id="BGPattern" patternUnits="userSpaceOnUse" alignment="0 0" imageRepeat="None" />
    <mask fill="white" id="Clip6">
      <path d="M 1241.9891325052508 738.2875070823239  C 1213.1505750245133 815.2980229165404  0.733202046866291 868.5252472393454  0.733202046866291 868.5252472393454  L 0.7332020468662495 0.07711210324566542  L 88.80598592060187 732.0548260036626  L 125.86631576845937 502.53639028912767  L 179.49479307771247 732.0548260036622  L 325.6129631377046 446.7075816018091  L 276.64783168143026 732.0548260036622  L 420.24476191034034 588.7003646724111  L 707.6092325823005 648.3116129726816  L 684.6905938170491 335.4282081884705  L 799.2837876432914 648.3116129726815  L 751.6835379000836 61.05003866419858  L 912.1140092568188 588.700364672411  L 1017.8923420195023 648  L 1106.0409526550736 648  L 1245.3157574592717 0.07711210324574634  C 1245.3157574592717 0.07711210324574634  1144.273538992473 449.17027079624336  1201.2414521414887 648.3116129726815  C 1244.7554853144836 800.4225556170658  1254.4777634763973 704.9378531062692  1241.9891325052508 738.2875070823239  Z " fill-rule="evenodd" />
    </mask>
  </defs>
  <g transform="matrix(1 0 0 1 -36 -1868 )">
    <path d="M 1241.9891325052508 738.2875070823239  C 1213.1505750245133 815.2980229165404  0.733202046866291 868.5252472393454  0.733202046866291 868.5252472393454  L 0.7332020468662495 0.07711210324566542  L 88.80598592060187 732.0548260036626  L 125.86631576845937 502.53639028912767  L 179.49479307771247 732.0548260036622  L 325.6129631377046 446.7075816018091  L 276.64783168143026 732.0548260036622  L 420.24476191034034 588.7003646724111  L 707.6092325823005 648.3116129726816  L 684.6905938170491 335.4282081884705  L 799.2837876432914 648.3116129726815  L 751.6835379000836 61.05003866419858  L 912.1140092568188 588.700364672411  L 1017.8923420195023 648  L 1106.0409526550736 648  L 1245.3157574592717 0.07711210324574634  C 1245.3157574592717 0.07711210324574634  1144.273538992473 449.17027079624336  1201.2414521414887 648.3116129726815  C 1244.7554853144836 800.4225556170658  1254.4777634763973 704.9378531062692  1241.9891325052508 738.2875070823239  Z " fill-rule="nonzero" fill="rgba(255, 12, 143, 1)" stroke="none" transform="matrix(1 0 0 1 36 1868 )" class="fill" />
    <path d="M 1241.9891325052508 738.2875070823239  C 1213.1505750245133 815.2980229165404  0.733202046866291 868.5252472393454  0.733202046866291 868.5252472393454  L 0.7332020468662495 0.07711210324566542  L 88.80598592060187 732.0548260036626  L 125.86631576845937 502.53639028912767  L 179.49479307771247 732.0548260036622  L 325.6129631377046 446.7075816018091  L 276.64783168143026 732.0548260036622  L 420.24476191034034 588.7003646724111  L 707.6092325823005 648.3116129726816  L 684.6905938170491 335.4282081884705  L 799.2837876432914 648.3116129726815  L 751.6835379000836 61.05003866419858  L 912.1140092568188 588.700364672411  L 1017.8923420195023 648  L 1106.0409526550736 648  L 1245.3157574592717 0.07711210324574634  C 1245.3157574592717 0.07711210324574634  1144.273538992473 449.17027079624336  1201.2414521414887 648.3116129726815  C 1244.7554853144836 800.4225556170658  1254.4777634763973 704.9378531062692  1241.9891325052508 738.2875070823239  Z " stroke-width="2" stroke-dasharray="0" stroke="rgba(121, 121, 121, 1)" fill="none" transform="matrix(1 0 0 1 36 1868 )" class="stroke" mask="url(#Clip6)" />
  </g>
</svg>