<?xml version="1.0" encoding="utf-8"?>
<svg version="1.1" xmlns:xlink="http://www.w3.org/1999/xlink" width="45px" height="69px" xmlns="http://www.w3.org/2000/svg">
  <defs>
    <pattern id="BGPattern" patternUnits="userSpaceOnUse" alignment="0 0" imageRepeat="None" />
    <mask fill="white" id="Clip28">
      <path d="M 0.8624999999988958 1.6512820512837676  L 4.312500000001066 0  L 16.38749999999891 0  L 13 6.1333333333368065  L 13 48.59487179487527  L 29.21159874608265 8.520161830510233  L 24.337500000001075 1.6512820512837676  L 44.96249999999888 0  L 39.03749999999999 9.506149023390462  L 40.26175548589447 65.22564102564445  L 43.46250000000108 68.882051282053  L 25.449843260189155 69  L 32 65.22564102564445  L 32 16.531307772687104  L 12.562499999998934 62.51282051282219  L 10.537499999998921 67.46666666666846  L 5 66.40512820512996  L 5 7.194871794875309  L 0.8624999999988958 1.6512820512837676  Z " fill-rule="evenodd" />
    </mask>
  </defs>
  <g transform="matrix(1 0 0 1 -307 -575 )">
    <path d="M 0.8624999999988958 1.6512820512837676  L 4.312500000001066 0  L 16.38749999999891 0  L 13 6.1333333333368065  L 13 48.59487179487527  L 29.21159874608265 8.520161830510233  L 24.337500000001075 1.6512820512837676  L 44.96249999999888 0  L 39.03749999999999 9.506149023390462  L 40.26175548589447 65.22564102564445  L 43.46250000000108 68.882051282053  L 25.449843260189155 69  L 32 65.22564102564445  L 32 16.531307772687104  L 12.562499999998934 62.51282051282219  L 10.537499999998921 67.46666666666846  L 5 66.40512820512996  L 5 7.194871794875309  L 0.8624999999988958 1.6512820512837676  Z " fill-rule="nonzero" fill="rgba(255, 12, 143, 1)" stroke="none" transform="matrix(1 0 0 1 307 575 )" class="fill" />
    <path d="M 0.8624999999988958 1.6512820512837676  L 4.312500000001066 0  L 16.38749999999891 0  L 13 6.1333333333368065  L 13 48.59487179487527  L 29.21159874608265 8.520161830510233  L 24.337500000001075 1.6512820512837676  L 44.96249999999888 0  L 39.03749999999999 9.506149023390462  L 40.26175548589447 65.22564102564445  L 43.46250000000108 68.882051282053  L 25.449843260189155 69  L 32 65.22564102564445  L 32 16.531307772687104  L 12.562499999998934 62.51282051282219  L 10.537499999998921 67.46666666666846  L 5 66.40512820512996  L 5 7.194871794875309  L 0.8624999999988958 1.6512820512837676  Z " stroke-width="2" stroke-dasharray="0" stroke="rgba(121, 121, 121, 1)" fill="none" transform="matrix(1 0 0 1 307 575 )" class="stroke" mask="url(#Clip28)" />
  </g>
</svg>