<?xml version="1.0" encoding="utf-8"?>
<svg version="1.1" xmlns:xlink="http://www.w3.org/1999/xlink" width="58px" height="69px" xmlns="http://www.w3.org/2000/svg">
  <defs>
    <pattern id="BGPattern" patternUnits="userSpaceOnUse" alignment="0 0" imageRepeat="None" />
    <mask fill="white" id="Clip29">
      <path d="M 8 61.77380422691884  L 8 2.1631256952186733  L 1.2441492726159642 0  L 25.026565464895654 0  L 15.032890575586933 3.45  L 18.827956989249177 28.898387096778112  L 41.471853257435704 0  L 52.73055028462996 1.0118464961085294  L 25.026565464895654 30.689265850945546  L 52.88235294117647 64.46012235817577  L 56.65211891208459 65  L 36.28526249209544 65  L 42.6103731815343 64.46012235817577  L 18.827956989249177 40.283259176863346  L 15.032890575586933 60.62252502780869  L 21.864010120178897 67  L 1.2441492726159642 67  L 8 61.77380422691884  Z " fill-rule="evenodd" />
    </mask>
  </defs>
  <g transform="matrix(1 0 0 1 -414 -575 )">
    <path d="M 8 61.77380422691884  L 8 2.1631256952186733  L 1.2441492726159642 0  L 25.026565464895654 0  L 15.032890575586933 3.45  L 18.827956989249177 28.898387096778112  L 41.471853257435704 0  L 52.73055028462996 1.0118464961085294  L 25.026565464895654 30.689265850945546  L 52.88235294117647 64.46012235817577  L 56.65211891208459 65  L 36.28526249209544 65  L 42.6103731815343 64.46012235817577  L 18.827956989249177 40.283259176863346  L 15.032890575586933 60.62252502780869  L 21.864010120178897 67  L 1.2441492726159642 67  L 8 61.77380422691884  Z " fill-rule="nonzero" fill="rgba(255, 12, 143, 1)" stroke="none" transform="matrix(1 0 0 1 414 575 )" class="fill" />
    <path d="M 8 61.77380422691884  L 8 2.1631256952186733  L 1.2441492726159642 0  L 25.026565464895654 0  L 15.032890575586933 3.45  L 18.827956989249177 28.898387096778112  L 41.471853257435704 0  L 52.73055028462996 1.0118464961085294  L 25.026565464895654 30.689265850945546  L 52.88235294117647 64.46012235817577  L 56.65211891208459 65  L 36.28526249209544 65  L 42.6103731815343 64.46012235817577  L 18.827956989249177 40.283259176863346  L 15.032890575586933 60.62252502780869  L 21.864010120178897 67  L 1.2441492726159642 67  L 8 61.77380422691884  Z " stroke-width="2" stroke-dasharray="0" stroke="rgba(121, 121, 121, 1)" fill="none" transform="matrix(1 0 0 1 414 575 )" class="stroke" mask="url(#Clip29)" />
  </g>
</svg>