<?xml version="1.0" encoding="utf-8"?>
<svg version="1.1" xmlns:xlink="http://www.w3.org/1999/xlink" width="27px" height="43px" xmlns="http://www.w3.org/2000/svg">
  <defs>
    <pattern id="BGPattern" patternUnits="userSpaceOnUse" alignment="0 0" imageRepeat="None" />
    <mask fill="white" id="Clip30">
      <path d="M 0.26136363636362603 27.962121212118404  L 2.7234848484820873 13.56818181818187  L 9.35227272727272 0.6893939393911523  L 22.799242424241044 3.151515151513763  L 26.39772727272728 14.000000000000002  L 22.799242424241044 37.242424242422885  L 17.117424242422857 42.924242424241015  L 9.35227272727272 40.65151515151376  L 0.26136363636362603 27.962121212118404  Z " fill-rule="evenodd" />
    </mask>
  </defs>
  <g transform="matrix(1 0 0 1 -219 -593 )">
    <path d="M 0.26136363636362603 27.962121212118404  L 2.7234848484820873 13.56818181818187  L 9.35227272727272 0.6893939393911523  L 22.799242424241044 3.151515151513763  L 26.39772727272728 14.000000000000002  L 22.799242424241044 37.242424242422885  L 17.117424242422857 42.924242424241015  L 9.35227272727272 40.65151515151376  L 0.26136363636362603 27.962121212118404  Z " fill-rule="nonzero" fill="rgba(171, 255, 12, 1)" stroke="none" transform="matrix(1 0 0 1 219 593 )" class="fill" />
    <path d="M 0.26136363636362603 27.962121212118404  L 2.7234848484820873 13.56818181818187  L 9.35227272727272 0.6893939393911523  L 22.799242424241044 3.151515151513763  L 26.39772727272728 14.000000000000002  L 22.799242424241044 37.242424242422885  L 17.117424242422857 42.924242424241015  L 9.35227272727272 40.65151515151376  L 0.26136363636362603 27.962121212118404  Z " stroke-width="2" stroke-dasharray="0" stroke="rgba(121, 121, 121, 1)" fill="none" transform="matrix(1 0 0 1 219 593 )" class="stroke" mask="url(#Clip30)" />
  </g>
</svg>