<?xml version="1.0" encoding="utf-8"?>
<svg version="1.1" xmlns:xlink="http://www.w3.org/1999/xlink" width="487px" height="651px" xmlns="http://www.w3.org/2000/svg">
  <defs>
    <pattern id="BGPattern" patternUnits="userSpaceOnUse" alignment="0 0" imageRepeat="None" />
    <mask fill="white" id="Clip7">
      <path d="M 70.91403508771775 138.0909090909107  C 70.91403508771775 112.98347107438016  46.991228070172326 0  46.991228070172326 0  L 134.13859649122497 95.04958677686113  L 316.9771929824546 73.52892561983634  L 446.84385964911974 95.04958677686113  L 486.14561403508617 227.76033057851075  L 487 423.2396694214892  L 486.14561403508617 624.099173553719  L 113.63333333333023 651  L 0.8543859649091724 523.6694214876017  L 70.91403508771775 317.42975206611567  C 70.91403508771775 317.42975206611567  70.91403508771775 163.1983471074413  70.91403508771775 138.0909090909107  Z " fill-rule="evenodd" />
    </mask>
  </defs>
  <g transform="matrix(1 0 0 1 -663 -1284 )">
    <path d="M 70.91403508771775 138.0909090909107  C 70.91403508771775 112.98347107438016  46.991228070172326 0  46.991228070172326 0  L 134.13859649122497 95.04958677686113  L 316.9771929824546 73.52892561983634  L 446.84385964911974 95.04958677686113  L 486.14561403508617 227.76033057851075  L 487 423.2396694214892  L 486.14561403508617 624.099173553719  L 113.63333333333023 651  L 0.8543859649091724 523.6694214876017  L 70.91403508771775 317.42975206611567  C 70.91403508771775 317.42975206611567  70.91403508771775 163.1983471074413  70.91403508771775 138.0909090909107  Z " fill-rule="nonzero" fill="rgba(255, 255, 255, 1)" stroke="none" transform="matrix(1 0 0 1 663 1284 )" class="fill" />
    <path d="M 70.91403508771775 138.0909090909107  C 70.91403508771775 112.98347107438016  46.991228070172326 0  46.991228070172326 0  L 134.13859649122497 95.04958677686113  L 316.9771929824546 73.52892561983634  L 446.84385964911974 95.04958677686113  L 486.14561403508617 227.76033057851075  L 487 423.2396694214892  L 486.14561403508617 624.099173553719  L 113.63333333333023 651  L 0.8543859649091724 523.6694214876017  L 70.91403508771775 317.42975206611567  C 70.91403508771775 317.42975206611567  70.91403508771775 163.1983471074413  70.91403508771775 138.0909090909107  Z " stroke-width="38" stroke-dasharray="0" stroke="rgba(0, 0, 255, 1)" fill="none" transform="matrix(1 0 0 1 663 1284 )" class="stroke" mask="url(#Clip7)" />
  </g>
</svg>