<?xml version="1.0" encoding="utf-8"?>
<svg version="1.1" xmlns:xlink="http://www.w3.org/1999/xlink" width="295px" height="257px" xmlns="http://www.w3.org/2000/svg">
  <defs>
    <pattern id="BGPattern" patternUnits="userSpaceOnUse" alignment="0 0" imageRepeat="None" />
    <mask fill="white" id="Clip8">
      <path d="M 0.7393483709246286 60.99466666666168  L 0.7393483709246286 129.528  L 42.14285714285714 255.62933333333083  L 105.72681704260921 221  L 206.27819548872182 221  L 293.52130325814267 129.528  L 206.27819548872182 165.16533333333084  L 192.9699248120301 48.65866666666168  L 170.78947368421052 143.23466666666167  L 89.46115288220282 60.99466666666168  L 136.77944862155658 0.6853333333308401  L 65 60.99466666666168  L 65 129.528  L 0.7393483709246286 60.99466666666168  Z " fill-rule="evenodd" />
    </mask>
  </defs>
  <g transform="matrix(1 0 0 1 0 -179 )">
    <path d="M 0.7393483709246286 60.99466666666168  L 0.7393483709246286 129.528  L 42.14285714285714 255.62933333333083  L 105.72681704260921 221  L 206.27819548872182 221  L 293.52130325814267 129.528  L 206.27819548872182 165.16533333333084  L 192.9699248120301 48.65866666666168  L 170.78947368421052 143.23466666666167  L 89.46115288220282 60.99466666666168  L 136.77944862155658 0.6853333333308401  L 65 60.99466666666168  L 65 129.528  L 0.7393483709246286 60.99466666666168  Z " fill-rule="nonzero" fill="rgba(255, 12, 143, 1)" stroke="none" transform="matrix(1 0 0 1 0 179 )" class="fill" />
    <path d="M 0.7393483709246286 60.99466666666168  L 0.7393483709246286 129.528  L 42.14285714285714 255.62933333333083  L 105.72681704260921 221  L 206.27819548872182 221  L 293.52130325814267 129.528  L 206.27819548872182 165.16533333333084  L 192.9699248120301 48.65866666666168  L 170.78947368421052 143.23466666666167  L 89.46115288220282 60.99466666666168  L 136.77944862155658 0.6853333333308401  L 65 60.99466666666168  L 65 129.528  L 0.7393483709246286 60.99466666666168  Z " stroke-width="2" stroke-dasharray="0" stroke="rgba(121, 121, 121, 1)" fill="none" transform="matrix(1 0 0 1 0 179 )" class="stroke" mask="url(#Clip8)" />
  </g>
</svg>