<?xml version="1.0" encoding="utf-8"?>
<svg version="1.1" xmlns:xlink="http://www.w3.org/1999/xlink" width="917px" height="1478px" xmlns="http://www.w3.org/2000/svg">
  <defs>
    <pattern id="BGPattern" patternUnits="userSpaceOnUse" alignment="0 0" imageRepeat="None" />
    <mask fill="white" id="Clip35">
      <path d="M 0 1477.9521883997022  L 0.5998810585798957 0.5737392035713293  L 36.047398156406736 268.31870087018393  L 450.5106749925674 161.53946020552226  L 74.22164733868695 282.66218095946687  L 646.8353850728529 349.5984213761201  L 916.7818614332417 488.2520622391874  L 854 563.1569027054414  L 854 507.3767023582311  L 646.8353850728529 405.37862172333035  L 499.59185251263875 457.97138205070064  L 145.11668153434434 693.8419435189078  L 74.22164733868695 883.4946246994265  L 578.6670829616414 1004.617345453369  L 854.0670234909333 967.9617852252005  L 578.6670829616414 1038.0854656616957  L 145.11668153434434 967.9617852252005  L 0 1477.9521883997022  Z " fill-rule="evenodd" />
    </mask>
  </defs>
  <g transform="matrix(1 0 0 1 -313 326 )">
    <path d="M 0 1477.9521883997022  L 0.5998810585798957 0.5737392035713293  L 36.047398156406736 268.31870087018393  L 450.5106749925674 161.53946020552226  L 74.22164733868695 282.66218095946687  L 646.8353850728529 349.5984213761201  L 916.7818614332417 488.2520622391874  L 854 563.1569027054414  L 854 507.3767023582311  L 646.8353850728529 405.37862172333035  L 499.59185251263875 457.97138205070064  L 145.11668153434434 693.8419435189078  L 74.22164733868695 883.4946246994265  L 578.6670829616414 1004.617345453369  L 854.0670234909333 967.9617852252005  L 578.6670829616414 1038.0854656616957  L 145.11668153434434 967.9617852252005  L 0 1477.9521883997022  Z " fill-rule="nonzero" fill="rgba(57, 70, 189, 1)" stroke="none" transform="matrix(1 0 0 1 313 -326 )" class="fill" />
    <path d="M 0 1477.9521883997022  L 0.5998810585798957 0.5737392035713293  L 36.047398156406736 268.31870087018393  L 450.5106749925674 161.53946020552226  L 74.22164733868695 282.66218095946687  L 646.8353850728529 349.5984213761201  L 916.7818614332417 488.2520622391874  L 854 563.1569027054414  L 854 507.3767023582311  L 646.8353850728529 405.37862172333035  L 499.59185251263875 457.97138205070064  L 145.11668153434434 693.8419435189078  L 74.22164733868695 883.4946246994265  L 578.6670829616414 1004.617345453369  L 854.0670234909333 967.9617852252005  L 578.6670829616414 1038.0854656616957  L 145.11668153434434 967.9617852252005  L 0 1477.9521883997022  Z " stroke-width="2" stroke-dasharray="17,4,5,4" stroke="rgba(121, 121, 121, 1)" fill="none" transform="matrix(1 0 0 1 313 -326 )" class="stroke" mask="url(#Clip35)" />
  </g>
</svg>