<?xml version="1.0" encoding="utf-8"?>
<svg version="1.1" xmlns:xlink="http://www.w3.org/1999/xlink" width="991px" height="1230px" xmlns="http://www.w3.org/2000/svg">
  <defs>
    <pattern id="BGPattern" patternUnits="userSpaceOnUse" alignment="0 0" imageRepeat="None" />
    <mask fill="white" id="Clip36">
      <path d="M 965.6321647189773 1229.4281729428187  L 127.39065108514191 1229.4281729428187  L 0.5514746800210054 1023.5704323570446  L 102.57429048414023 897.7684797768467  L 69.48580968280467 523.2217573221757  L 127.39065108514191 926.3598326359833  L 532.7245409015025 117.22454672245338  L 234.92821368948248 823.4309623430962  L 676.1079577072912 631.8688981868885  L 849.8224819143029 0  L 764.3439065108514 571.8270571827044  L 990.448525319979 474.61645746164703  C 990.448525319979 474.61645746164703  764.3439065108477 714.7838214783795  720.2259321090694 769.107391910738  C 676.1079577072912 823.4309623430962  720.2259321090694 769  720.2259321090694 769  L 965.6321647189773 769  L 764.3439065108514 823.4309623430962  L 965.6321647189773 926.3598326359833  L 849.8224819143029 1023.5704323570446  L 965.6321647189773 1229.4281729428187  Z " fill-rule="evenodd" />
    </mask>
  </defs>
  <g transform="matrix(1 0 0 1 -120 119 )">
    <path d="M 965.6321647189773 1229.4281729428187  L 127.39065108514191 1229.4281729428187  L 0.5514746800210054 1023.5704323570446  L 102.57429048414023 897.7684797768467  L 69.48580968280467 523.2217573221757  L 127.39065108514191 926.3598326359833  L 532.7245409015025 117.22454672245338  L 234.92821368948248 823.4309623430962  L 676.1079577072912 631.8688981868885  L 849.8224819143029 0  L 764.3439065108514 571.8270571827044  L 990.448525319979 474.61645746164703  C 990.448525319979 474.61645746164703  764.3439065108477 714.7838214783795  720.2259321090694 769.107391910738  C 676.1079577072912 823.4309623430962  720.2259321090694 769  720.2259321090694 769  L 965.6321647189773 769  L 764.3439065108514 823.4309623430962  L 965.6321647189773 926.3598326359833  L 849.8224819143029 1023.5704323570446  L 965.6321647189773 1229.4281729428187  Z " fill-rule="nonzero" fill="rgba(255, 78, 195, 1)" stroke="none" transform="matrix(1 0 0 1 120 -119 )" class="fill" />
    <path d="M 965.6321647189773 1229.4281729428187  L 127.39065108514191 1229.4281729428187  L 0.5514746800210054 1023.5704323570446  L 102.57429048414023 897.7684797768467  L 69.48580968280467 523.2217573221757  L 127.39065108514191 926.3598326359833  L 532.7245409015025 117.22454672245338  L 234.92821368948248 823.4309623430962  L 676.1079577072912 631.8688981868885  L 849.8224819143029 0  L 764.3439065108514 571.8270571827044  L 990.448525319979 474.61645746164703  C 990.448525319979 474.61645746164703  764.3439065108477 714.7838214783795  720.2259321090694 769.107391910738  C 676.1079577072912 823.4309623430962  720.2259321090694 769  720.2259321090694 769  L 965.6321647189773 769  L 764.3439065108514 823.4309623430962  L 965.6321647189773 926.3598326359833  L 849.8224819143029 1023.5704323570446  L 965.6321647189773 1229.4281729428187  Z " stroke-width="2" stroke-dasharray="0" stroke="rgba(121, 121, 121, 1)" fill="none" transform="matrix(1 0 0 1 120 -119 )" class="stroke" mask="url(#Clip36)" />
  </g>
</svg>