<?xml version="1.0" encoding="utf-8"?>
<svg version="1.1" xmlns:xlink="http://www.w3.org/1999/xlink" width="503px" height="636px" xmlns="http://www.w3.org/2000/svg">
  <defs>
    <pattern id="BGPattern" patternUnits="userSpaceOnUse" alignment="0 0" imageRepeat="None" />
    <mask fill="white" id="Clip37">
      <path d="M 42.13721804511283 141.42179301464765  L 0.345238095236486 0.36272332206657953  L 82.11215538846953 69  L 243.82894736842107 69  L 450.9718045112782 68.87712860132066  L 425.5332080200534 165.60334781908986  L 492.76378446115444 260.31443746982137  L 450.9718045112782 447.7214872042492  L 478.2274436090225 566.6141316594228  L 493 625.0528891034937  L 0.345238095236486 606.9167230001618  L 42.13721804511283 447.7214872042492  L 0 240.16314179945184  L 42.13721804511283 141.42179301464765  Z " fill-rule="evenodd" />
    </mask>
  </defs>
  <g transform="matrix(1 0 0 1 -36 -22 )">
    <path d="M 42.13721804511283 141.42179301464765  L 0.345238095236486 0.36272332206657953  L 82.11215538846953 69  L 243.82894736842107 69  L 450.9718045112782 68.87712860132066  L 425.5332080200534 165.60334781908986  L 492.76378446115444 260.31443746982137  L 450.9718045112782 447.7214872042492  L 478.2274436090225 566.6141316594228  L 493 625.0528891034937  L 0.345238095236486 606.9167230001618  L 42.13721804511283 447.7214872042492  L 0 240.16314179945184  L 42.13721804511283 141.42179301464765  Z " fill-rule="nonzero" fill="rgba(255, 255, 255, 1)" stroke="none" transform="matrix(1 0 0 1 36 22 )" class="fill" />
    <path d="M 42.13721804511283 141.42179301464765  L 0.345238095236486 0.36272332206657953  L 82.11215538846953 69  L 243.82894736842107 69  L 450.9718045112782 68.87712860132066  L 425.5332080200534 165.60334781908986  L 492.76378446115444 260.31443746982137  L 450.9718045112782 447.7214872042492  L 478.2274436090225 566.6141316594228  L 493 625.0528891034937  L 0.345238095236486 606.9167230001618  L 42.13721804511283 447.7214872042492  L 0 240.16314179945184  L 42.13721804511283 141.42179301464765  Z " stroke-width="2" stroke-dasharray="0" stroke="rgba(121, 121, 121, 1)" fill="none" transform="matrix(1 0 0 1 36 22 )" class="stroke" mask="url(#Clip37)" />
  </g>
  <style>svg { filter: drop-shadow(5px 5px 2.5px rgba(0, 0, 0, 0.34901960784313724)); }</style>
</svg>