<?xml version="1.0" encoding="utf-8"?>
<svg version="1.1" xmlns:xlink="http://www.w3.org/1999/xlink" width="560px" height="157px" xmlns="http://www.w3.org/2000/svg">
  <defs>
    <pattern id="BGPattern" patternUnits="userSpaceOnUse" alignment="0 0" imageRepeat="None" />
    <mask fill="white" id="Clip38">
      <path d="M 41.92966075318959 58.875  L 25.74540927482159 33.608499649860136  L 75.54310613134086 49.41294642857127  L 109 0.28173144257757143  L 109 33.608499649860136  L 136 52.161545868347545  L 136 23.98840161064475  L 173.27108621226324 43.57217261904815  L 198.16993464052285 23.98840161064475  L 217.46654217242394 52.161545868347545  L 287.80578898225957 6.12250525210069  L 246.10021786492425 52.161545868347545  L 300.8776844070962 40.479998249300195  L 312.7046374105191 20.209077380952646  L 341.96078431372547 49.41294642857127  L 388.6461251167133 0.28173144257757143  L 380.5539993775293 52.161545868347545  L 419.1472144413315 28.45487570028037  L 411.67755991285344 49.41294642857127  L 472.05726735138546 17.11690301120469  L 484.5066915655145 46.664346988796105  L 526.2122626828514 23.98840161064475  L 506.2931839402427 58.875  L 559.8257080610026 73.80676645658292  L 517.4976657329598 76.55536589635904  L 539.2841581076881 118.81508228291362  L 484.5066915655145 99.57488620448207  L 432.21910986616814 151.11112570028035  L 452.1381886087768 99.57488620448207  L 380.5539993775293 130.1530549719893  L 396.7382508558974 93.04696253501449  L 350.0529100529094 109.88213410364176  L 312.7046374105191 93.04696253501449  L 269.75412387177045 146.3010766806721  L 261.03952692188045 93.04696253501449  L 222.44631185807654 121.90725665266159  L 163.31154684095802 99.57488620448207  L 145.88235294117646 118.81508228291362  L 125.34080298786178 99.57488620448207  L 16.408341114224026 156.95189950980443  L 86.74758792405794 93.04696253501449  L 16.408341114224026 121.90725665266159  L 56.8689698101457 93.04696253501449  L 7.071272953626448 83.77043942577077  L 36.94989106753868 76.55536589635904  L 0.22408963585433644 46.664346988796105  L 41.92966075318959 58.875  Z " fill-rule="evenodd" />
    </mask>
  </defs>
  <g transform="matrix(1 0 0 1 -651 -510 )">
    <path d="M 41.92966075318959 58.875  L 25.74540927482159 33.608499649860136  L 75.54310613134086 49.41294642857127  L 109 0.28173144257757143  L 109 33.608499649860136  L 136 52.161545868347545  L 136 23.98840161064475  L 173.27108621226324 43.57217261904815  L 198.16993464052285 23.98840161064475  L 217.46654217242394 52.161545868347545  L 287.80578898225957 6.12250525210069  L 246.10021786492425 52.161545868347545  L 300.8776844070962 40.479998249300195  L 312.7046374105191 20.209077380952646  L 341.96078431372547 49.41294642857127  L 388.6461251167133 0.28173144257757143  L 380.5539993775293 52.161545868347545  L 419.1472144413315 28.45487570028037  L 411.67755991285344 49.41294642857127  L 472.05726735138546 17.11690301120469  L 484.5066915655145 46.664346988796105  L 526.2122626828514 23.98840161064475  L 506.2931839402427 58.875  L 559.8257080610026 73.80676645658292  L 517.4976657329598 76.55536589635904  L 539.2841581076881 118.81508228291362  L 484.5066915655145 99.57488620448207  L 432.21910986616814 151.11112570028035  L 452.1381886087768 99.57488620448207  L 380.5539993775293 130.1530549719893  L 396.7382508558974 93.04696253501449  L 350.0529100529094 109.88213410364176  L 312.7046374105191 93.04696253501449  L 269.75412387177045 146.3010766806721  L 261.03952692188045 93.04696253501449  L 222.44631185807654 121.90725665266159  L 163.31154684095802 99.57488620448207  L 145.88235294117646 118.81508228291362  L 125.34080298786178 99.57488620448207  L 16.408341114224026 156.95189950980443  L 86.74758792405794 93.04696253501449  L 16.408341114224026 121.90725665266159  L 56.8689698101457 93.04696253501449  L 7.071272953626448 83.77043942577077  L 36.94989106753868 76.55536589635904  L 0.22408963585433644 46.664346988796105  L 41.92966075318959 58.875  Z " fill-rule="nonzero" fill="rgba(255, 255, 128, 1)" stroke="none" transform="matrix(1 0 0 1 651 510 )" class="fill" />
    <path d="M 41.92966075318959 58.875  L 25.74540927482159 33.608499649860136  L 75.54310613134086 49.41294642857127  L 109 0.28173144257757143  L 109 33.608499649860136  L 136 52.161545868347545  L 136 23.98840161064475  L 173.27108621226324 43.57217261904815  L 198.16993464052285 23.98840161064475  L 217.46654217242394 52.161545868347545  L 287.80578898225957 6.12250525210069  L 246.10021786492425 52.161545868347545  L 300.8776844070962 40.479998249300195  L 312.7046374105191 20.209077380952646  L 341.96078431372547 49.41294642857127  L 388.6461251167133 0.28173144257757143  L 380.5539993775293 52.161545868347545  L 419.1472144413315 28.45487570028037  L 411.67755991285344 49.41294642857127  L 472.05726735138546 17.11690301120469  L 484.5066915655145 46.664346988796105  L 526.2122626828514 23.98840161064475  L 506.2931839402427 58.875  L 559.8257080610026 73.80676645658292  L 517.4976657329598 76.55536589635904  L 539.2841581076881 118.81508228291362  L 484.5066915655145 99.57488620448207  L 432.21910986616814 151.11112570028035  L 452.1381886087768 99.57488620448207  L 380.5539993775293 130.1530549719893  L 396.7382508558974 93.04696253501449  L 350.0529100529094 109.88213410364176  L 312.7046374105191 93.04696253501449  L 269.75412387177045 146.3010766806721  L 261.03952692188045 93.04696253501449  L 222.44631185807654 121.90725665266159  L 163.31154684095802 99.57488620448207  L 145.88235294117646 118.81508228291362  L 125.34080298786178 99.57488620448207  L 16.408341114224026 156.95189950980443  L 86.74758792405794 93.04696253501449  L 16.408341114224026 121.90725665266159  L 56.8689698101457 93.04696253501449  L 7.071272953626448 83.77043942577077  L 36.94989106753868 76.55536589635904  L 0.22408963585433644 46.664346988796105  L 41.92966075318959 58.875  Z " stroke-width="2" stroke-dasharray="0" stroke="rgba(121, 121, 121, 1)" fill="none" transform="matrix(1 0 0 1 651 510 )" class="stroke" mask="url(#Clip38)" />
  </g>
</svg>