<?xml version="1.0" encoding="utf-8"?>
<svg version="1.1" xmlns:xlink="http://www.w3.org/1999/xlink" width="57px" height="93px" xmlns="http://www.w3.org/2000/svg">
  <defs>
    <pattern id="BGPattern" patternUnits="userSpaceOnUse" alignment="0 0" imageRepeat="None" />
    <mask fill="white" id="Clip32">
      <path d="M 0 46.5  C 0 20.459999999999997  12.54 0  28.5 0  C 44.46 0  57 20.459999999999997  57 46.5  C 57 72.54  44.46 93  28.5 93  C 12.54 93  0 72.54  0 46.5  Z " fill-rule="evenodd" />
    </mask>
  </defs>
  <g transform="matrix(1 0 0 1 -520 -219 )">
    <path d="M 0 46.5  C 0 20.459999999999997  12.54 0  28.5 0  C 44.46 0  57 20.459999999999997  57 46.5  C 57 72.54  44.46 93  28.5 93  C 12.54 93  0 72.54  0 46.5  Z " fill-rule="nonzero" fill="rgba(255, 255, 255, 1)" stroke="none" transform="matrix(1 0 0 1 520 219 )" class="fill" />
    <path d="M 0 46.5  C 0 20.459999999999997  12.54 0  28.5 0  C 44.46 0  57 20.459999999999997  57 46.5  C 57 72.54  44.46 93  28.5 93  C 12.54 93  0 72.54  0 46.5  Z " stroke-width="2" stroke-dasharray="0" stroke="rgba(121, 121, 121, 1)" fill="none" transform="matrix(1 0 0 1 520 219 )" class="stroke" mask="url(#Clip32)" />
  </g>
</svg>