<?xml version="1.0" encoding="utf-8"?>
<svg version="1.1" xmlns:xlink="http://www.w3.org/1999/xlink" width="34px" height="30px" xmlns="http://www.w3.org/2000/svg">
  <defs>
    <pattern id="BGPattern" patternUnits="userSpaceOnUse" alignment="0 0" imageRepeat="None" />
    <mask fill="white" id="Clip33">
      <path d="M 0 15  C 0 6.6  7.479999999999999 0  17 0  C 26.52 0  34 6.6  34 15  C 34 23.400000000000002  26.52 30  17 30  C 7.479999999999999 30  0 23.400000000000002  0 15  Z " fill-rule="evenodd" />
    </mask>
  </defs>
  <g transform="matrix(1 0 0 1 -490 -179 )">
    <path d="M 0 15  C 0 6.6  7.479999999999999 0  17 0  C 26.52 0  34 6.6  34 15  C 34 23.400000000000002  26.52 30  17 30  C 7.479999999999999 30  0 23.400000000000002  0 15  Z " fill-rule="nonzero" fill="rgba(18, 18, 18, 0.996078431372549)" stroke="none" transform="matrix(1 0 0 1 490 179 )" class="fill" />
    <path d="M 0 15  C 0 6.6  7.479999999999999 0  17 0  C 26.52 0  34 6.6  34 15  C 34 23.400000000000002  26.52 30  17 30  C 7.479999999999999 30  0 23.400000000000002  0 15  Z " stroke-width="2" stroke-dasharray="0" stroke="rgba(121, 121, 121, 1)" fill="none" transform="matrix(1 0 0 1 490 179 )" class="stroke" mask="url(#Clip33)" />
  </g>
</svg>