<?xml version="1.0" encoding="utf-8"?>
<svg version="1.1" xmlns:xlink="http://www.w3.org/1999/xlink" width="35px" height="77px" xmlns="http://www.w3.org/2000/svg">
  <defs>
    <pattern id="BGPattern" patternUnits="userSpaceOnUse" alignment="0 0" imageRepeat="None" />
    <mask fill="white" id="Clip34">
      <path d="M 0 38.5  C 0 16.939999999999998  7.699999999999999 0  17.5 0  C 27.3 0  35 16.939999999999998  35 38.5  C 35 60.06  27.3 77  17.5 77  C 7.699999999999999 77  0 60.06  0 38.5  Z " fill-rule="evenodd" />
    </mask>
  </defs>
  <g transform="matrix(1 0 0 1 -531 -227 )">
    <path d="M 0 38.5  C 0 16.939999999999998  7.699999999999999 0  17.5 0  C 27.3 0  35 16.939999999999998  35 38.5  C 35 60.06  27.3 77  17.5 77  C 7.699999999999999 77  0 60.06  0 38.5  Z " fill-rule="nonzero" fill="rgba(18, 18, 18, 0.996078431372549)" stroke="none" transform="matrix(1 0 0 1 531 227 )" class="fill" />
    <path d="M 0 38.5  C 0 16.939999999999998  7.699999999999999 0  17.5 0  C 27.3 0  35 16.939999999999998  35 38.5  C 35 60.06  27.3 77  17.5 77  C 7.699999999999999 77  0 60.06  0 38.5  Z " stroke-width="2" stroke-dasharray="0" stroke="rgba(121, 121, 121, 1)" fill="none" transform="matrix(1 0 0 1 531 227 )" class="stroke" mask="url(#Clip34)" />
  </g>
</svg>